<?xml version="1.0" encoding="UTF-8"?>
<svg id="Layer_1" data-name="Layer 1" xmlns="http://www.w3.org/2000/svg" xmlns:xlink="http://www.w3.org/1999/xlink" viewBox="0 0 1493.1 99.71">
  <defs>
    <style>
      .cls-1 {
        mask: url(#mask);
      }

      .cls-2 {
        filter: url(#luminosity-noclip);
      }
    </style>
    <filter id="luminosity-noclip" x="0" y="0" width="1493.1" height="99.71" color-interpolation-filters="sRGB" filterUnits="userSpaceOnUse">
      <feFlood flood-color="#fff" result="bg"/>
      <feBlend in="SourceGraphic" in2="bg"/>
    </filter>
    <mask id="mask" x="0" y="0" width="1493.1" height="99.71" maskUnits="userSpaceOnUse">
      <g class="cls-2">
        <g>
          <path d="M66.99,32.68h-.01c-2.7-.97-4.36-2.36-5.45-4.95-.91-2.18-2.01-4.61-4.61-5.25-2.87-.71-5.38-1.86-7.54-3.85-1.22-1.11-2.44-.99-2.75.73-.39,2.21-2,3.28-3.55,4.45-.51.39-1.67.39-1.22,1.36.38.82,1.26.38,1.9.12,1.36-.54,2.91-.58,3.75.46.78.96-.12,2.43-.51,3.49-.71,1.95-2.87.69-4.28,1.36-.83.4-1.26-.6-1.56-1.41-1.3-3.34-2.01-3.53-5.02-1.56-.69.45-1.17,1.08-1.75,1.62-2.37,2.19-2.56,6.44-6.72,6.95-.5.06-.94.58-.64,1.22.27.58.83.62,1.39.54,2-.25,3.99-.5,6.21-.77-.73,2.71-3.34,3.46-4.32,6.03-1.78,4.67-2.62,9.31-2.42,14.08.28,6.85,2.51,13.15,7.85,17.85,6.36,5.6,14.05,7.24,22.28,6.59,10.14-.81,17.8-5.35,22.23-14.81,6.15-13.14-.07-29.59-13.25-34.28ZM54.88,66.12c-5.55-.08-9.66-4.38-9.59-10.06.07-6.08,3.91-9.84,9.98-9.8,5.9.05,9.64,4.02,9.59,10.19-.05,5.6-4.32,9.75-9.98,9.66Z"/>
          <path d="M30.22,40.25c-.33-1.29-1.59-.64-2.48-.3-1.71.65-3.43,1.1-5.52,1.01,1.01-1.79,2.94-1.91,3.98-3.41-2.4-.79-4.36.27-6.28,3.25-.28.45-.65.88-.38,1.46.36.75,1.08.68,1.63.49,2.31-.77,4.73-.92,7.11-1.28.83-.13,2.23-.04,1.93-1.21h0Z"/>
        </g>
      </g>
    </mask>
  </defs>
  <g class="cls-1">
    <image width="3624" height="242" transform="scale(.41)" xlink:href="../../onafa-restaurant-root/adobe-files/new-nav-bar-copy.png"/>
  </g>
</svg>