<?xml version="1.0" encoding="UTF-8"?>
<svg id="Layer_2" data-name="Layer 2" xmlns="http://www.w3.org/2000/svg" viewBox="0 0 1307.89 374.85">
  <defs>
    <style>
      .cls-1 {
        fill: #231f20;
        stroke-width: 0px;
      }
    </style>
  </defs>
  <g id="Layer_1-2" data-name="Layer 1-2">
    <g id="C6X44r.tif">
      <g>
        <path class="cls-1" d="M151.52,267.51c-13.98.45-27.65-1.44-40.89-5.88-21.67-7.27-39.89-19.42-52.73-38.71-3.16-4.76-5.81-9.9-8.3-15.05-.99-2.06-2.95-4.46-.75-7.04,1.08-1.27.29-2.06-.64-2.92-4.38-4.03-4.76-9.52-5.49-14.93-1.06-7.89-2.43-15.68-2.03-23.77.89-18,5.29-34.77,13.51-50.94,4.11-8.07,10.68-13.43,16.07-20.07.83-1.02,2.68-1.71,2.18-3.19-.64-1.9-2.71-1.37-4.12-1.18-7.91,1.05-15.81,2.17-23.67,3.53-2.57.44-5.45,1.65-6.49-1.55-.91-2.8,2.4-3.04,4.07-4.02,5.09-2.97,11.7-3.01,15.61-8.32,1.6-2.17,4.19-3.82.5-6.56-2.52-1.88-1.09-3.88,1.02-5.1,3.31-1.92,6.26-4.4,7.95-7.68,3.47-6.73,10.51-8.68,15.96-12.71,2.49-1.84,8.36,1.74,10.17,6.08.81,1.94.96,4.17,1.27,6.28.66,4.62,7.08,8.36,10.38,5.38,3.11-2.81,5.73-2.4,9.07-1.62,3.47.81,6.09.62,5.4-4.45-.58-4.33,1.01-8.49,3.06-12.39,1.28-2.44,1.25-3.5-2.37-3.82-6.71-.59-13.26-1.32-19.74,1.22-1.81.71-3.65.25-4.26-1.86-.7-2.43,1.23-3.1,2.97-3.44,7.58-1.47,10.64-8.81,16.45-12.6,2.14-1.39,1.7-4.29,1.47-6.61-.35-3.57,1.71-5.46,4.44-6.87,2.67-1.38,4.37.42,6.11,2.11,8.23,8.01,17.43,14.12,29.15,15.92,6.81,1.05,11.72,5.73,15.22,11.2,4.21,6.57,7.9,13.57,10.91,20.76,1.55,3.69,3.44,5.68,7.12,6.72,32.15,9.05,55.54,29.03,66.26,60.38,14.66,42.89,8.06,82.71-25.23,115.68-16.3,16.14-36.8,23.78-59.25,26.97-6.82.97-13.58.97-20.39,1.07l.03-.02ZM192.25,162.54c.1-22.85-17.14-40.47-39.63-40.58-24.25-.12-41.01,16.6-40.84,41.1.17,24.35,16.43,40.13,39.63,40.61,23.43.48,40.87-16.8,40.84-41.13Z"/>
        <path class="cls-1" d="M743.45,130.04c0,20.6-.01,41.21.01,61.81,0,2.5-.8,5.64,1.77,7.03,2.34,1.27,4.12-1.59,6.24-2.36,9.54-3.46,13.71-12.17,19.22-19.56,1.85-2.49,1.35-5.67,1.75-8.55.41-2.99,1.43-4.66,4.83-5.55,4.67-1.22,8.05-.24,10.81,3.37,1.95,2.55,2.53,5.71.41,8.19-2.53,2.96-3.03,5.26-.78,8.74,1.58,2.45-.3,5.1-2.62,6.41-5.77,3.25-8.97,9.95-15.88,11.62-1.14.27-2.21,1.2-2.21,2.5.04,7.49-6.53,8.94-11.1,12.11-2.51,1.74-5.3,2.59-6.26,6.32-1,3.9-5.44,4.75-8.62,6.55-3.23,1.83-5.37,4.66-7.92,7.14-7.23,7.03-12,15.83-18.65,23.17-3.24,3.57-7.71,5.3-12.22,6.77-12.95,4.22-24.29,10.79-32.72,21.85-1.75,2.3-4.04,4.34-6.43,5.99-5.92,4.07-7.09,9.86-6.61,16.41.07.94.31,2.66.12,2.72-6.68,1.79-3.66,9.94-8.59,13-1.7,1.06-2.63,3.84-5.17,2.82-2.47-.99-1.97-3.54-1.93-5.68.01-.78.25-1.61.09-2.34-.73-3.21-2.38-4.66-5.25-2.02-1.71,1.58-3.13,3.49-4.57,5.33-.85,1.08-1.77,3.05-2.92,2.53-5.83-2.63-6.27,1.57-8.14,5.31-3.46,6.93-10.68,8.76-17.34,4.97-1.7-.96-2.94-.27-4.42.13-3.92,1.06-5.97-.75-6.59-4.53-.65-3.94,3.91-12.31,7.02-14.82,5.15-4.15,11.15-4.92,17-3.98,9.66,1.55,15.8-4.37,22.67-9.02,3.9-2.64,7-5.94,9.58-10.05,3.04-4.83,7.65-8.4,12.71-11.16,6.2-3.37,10.23-9,14.85-14.01.69-.75,2.01-1.59.94-2.89-.69-.83-1.65-.5-2.67-.28-8.85,1.87-17.85,1.54-26.81,1.45-23.54-.23-45.16-6.08-63.02-22.29-8.97-8.15-15.34-18.14-19.25-29.65-5.03-14.77-6.05-30.03-5.99-45.5.13-34.15.05-68.31-.14-102.47-.03-4.36.75-6.08,5.65-6.02,20.01.22,40.02.03,60.03-.19,3.62-.04,4.7,1.23,4.77,4.75.72,32.18.92,64.37-.02,96.53-.25,8.46-.46,16.72,1.59,24.92,3.65,14.56,22.97,21.25,34.64,11.73,5.72-4.67,7.96-11.51,7.97-18.78.07-37.49.07-74.98-.15-112.46-.03-4.58.76-6.67,5.89-6.62,20.01.19,40.02.08,60.03-.08,4.21-.03,5.12,1.76,5.09,5.67-.17,21-.08,42-.08,63h-.58l-.03.02Z"/>
        <path class="cls-1" d="M377.24,62.58c14.51,0,29.02-.1,43.53.03,13.05.11,25.64,2.75,37.67,7.77,19.37,8.08,32.21,22.41,39.05,42.06,9.63,27.67,6.76,53.83-11.8,76.95-15.85,19.74-38.13,26.46-62.48,27.55-8.02.36-16.1.44-24.11-.07-5.45-.35-6.49,1.61-6.34,6.61.33,11.56-.11,23.14.04,34.71.05,3.49-.75,4.73-4.52,4.7-20-.17-40-.16-60,.09-4.1.05-4.71-1.41-4.76-5.06-.35-26.8,0-53.61.29-80.39.18-16.13.43-32.34.19-48.46-.17-11.32-.71-22.69-.58-34.02.11-9.13.54-18.26-.04-27.39-.23-3.68,1.02-5.2,5.03-5.14,16.27.21,32.54.09,48.81.09v-.04h.02ZM391.65,140.55c0,5.29.12,10.58-.04,15.87-.11,3.62.3,5.65,5.01,5.45,6.56-.27,13.11.42,19.65-1.22,11.61-2.91,16.6-10.68,15.27-24.49-.88-9.12-9.45-16.49-19.6-16.71-4.89-.11-9.81.3-14.68-.05-4.61-.33-5.82,1.73-5.66,5.86.2,5.09.05,10.19.05,15.28h0Z"/>
        <path class="cls-1" d="M620.67,374.85c-4.53-.02-9.13-7.44-7.34-12.67,2.17-6.34,5.87-11.19,11.94-15.18,3.94-2.59,11.18-4.41,10.32-11.98-.1-.89.54-1.41,1.42-1.51,1.38-.14,2.18.68,2.72,1.8.91,1.91-.56,3.34-1.04,4.98-1.09,3.72-3.22,6.7-1.26,11.5,3.03,7.42-9.14,23.09-16.76,23.06h0Z"/>
        <path class="cls-1" d="M14.91,109.48c-3.24.76-6.46,1.6-9.73,2.25-1.63.32-3.51,1.13-4.67-1.01-.98-1.81-.44-3.63.64-4.96,2.22-2.73,4.86-5.11,7.15-7.79,2.02-2.36,6.19-2.96,5.81-7.43-.09-1.12,12.59-2.02,13.2-.82,1.37,2.69-.89,3.19-2.61,4.14-5.42,2.98-11.52,5.02-15.13,10.59-.15.44-.31.89-.46,1.33.51.02,1.01.04,1.52.06,1.31-.15,2.61-.3,3.91-.44.73,1.31.95,2.67.36,4.09h0Z"/>
        <path class="cls-1" d="M14.91,109.48c.59-1.43.38-2.78-.36-4.09,7.26-1.37,14.75-1.97,21.2-6.16.47-.3,1.12-.32,1.68-.49,3.27-1.02,7.02-1.06,7.88,2.53.92,3.8-3.56,5.71-6,5.7-8.27-.04-16.25,2.04-24.41,2.51h0Z"/>
        <g>
          <path class="cls-1" d="M1307.64,205.97c-.6-1.11-1.76-.85-2.59-.48-5.26,2.36-9.93.74-14.97-1.26-3.93-1.56-6.98-1.93-1.54-5.56,1.43-.95,2.09-2.45,1.34-4.1-.85-1.89-2.69-1.31-4.15-1.14-1.74.2-3.41.95-5.15,1.15-5.5.63-11.7,2.23-16.39-.07-8.78-4.3-16.65-6.26-24.88.41-.43.35-1.08.49-1.65.6-3.81.77-5.71-1.68-6.12-4.69-1.18-8.75-.99-8.91-10-9.31-3.67-.16-3.94-1.91-2.81-4.55.76-1.78,1.91-3.4,2.94-5.07,2.31-3.76,4.74-7.02,4.28-12.27-.38-4.33,5.85-4.03,8.73-6.47,2.35-1.98,2.42,1.61,3.27,2.69,8.87,11.19,29.43,14.47,38.29,5.81,2.93-2.86,5.62-6.07,7.9-9.47,2.2-3.29,1.93-5.55-2.27-8.35-3.68-2.45-10.81-2.95-9.79-10.53.38-2.8-2.03-2.72-3.49-1.25-6.68,6.72-13.3,1.95-19.97.17-2.96-.79-4.73-6.81-8.71-2.49-2.3,2.5-4.64,5.37-5.16,9.06-.19,1.35-.14,2.77-.52,4.07-1.57,5.24-4.83,6.44-9.24,3.21-3.29-2.41-5.76-.36-7.82,1.46-2.21,1.95-.03,3.84,1.17,5.56,1.29,1.84,3.7,2.79,4.5,5.22-6.86,1.14-11.25-2.66-9.71-8.9,2.13-8.65,4.58-17.33,11.61-23.69,2.76-2.5,5.41-5.13,8.05-7.76,1.55-1.54,4.56-3.03,1.86-5.59-2.71-2.56-4.7-.05-6.19,2-2.53,3.49-4.91,7.09-7.16,10.77-2.14,3.5-5.2,5.39-9.26,6.47-.29-3.25-.16-7.72-4.41-5.7-7.74,3.67-17.13,3.85-23.37,11.38-.75-1.74-1.34-2.96-1.81-4.22-8.32-22.3-16.68-44.59-24.85-66.94-1.09-2.98-2.39-4.47-5.77-4.44-21.77.16-43.54.16-65.31.17-2.12,0-4.01.25-4.71,2.56-1.34,4.45-3.56,8.65-3.84,13.4-3.98,8.31-7.48,16.78-9.44,25.83-1.09.52-1.86,1.3-2.29,2.48-5.94,16.32-11.88,32.64-17.87,48.93-10.24,27.82-20.53,55.62-30.77,83.43-3.06,8.32-6.04,16.67-9.21,25.44h51.93c1.21.46,2.42.49,3.63-.03,4.48.03,8.98-.2,13.42.18,3.41.29,4.93-1.19,5.88-4.13,1.86-5.71,3.84-11.37,5.77-17.06,1.08-4.18,3.64-5.59,7.98-5.12,4.59.5,9.27.22,13.91.29,10.59.03,21.19.18,31.78.03,3.56-.05,5.66.51,6.7,4.55,1.5,5.83,4.15,11.36,5.94,17.12,1.06,3.4,2.88,4.33,6.34,4.3,20.99-.17,41.98-.08,62.97-.08,6.72,0,6.74-.2,4.35-6.35-4.66-12.01-9.14-24.09-13.68-36.15-.6-1.58-1.95-3.77.38-4.54,5.06-1.67,9.83-4.78,15.77-2.59,7.95,2.92,15.91,5.98,24.4,7.13,1.52.21,3.53.32,4.39,1.29,5.14,5.8,12.74,5.12,19.14,7.38,6.91,2.44,7.63,1.41,7.23-6.15-.57-10.75,2-13.38,12.67-12.94,2.74.11,5.56.57,7.64-1.89.78-.93,1.31-2.04.67-3.23l.04.02ZM1131.81,191.5c-7.63-.18-15.27-.52-22.89-.28-4.94.15-5.7-1.72-4.34-5.91,4.08-12.59,7.92-25.25,12.13-37.8.89-2.66.65-5.82,3.07-8.39,5.3,16.42,10.46,32.48,15.66,48.52,1.17,3.6-.85,3.92-3.63,3.86Z"/>
          <path class="cls-1" d="M1071.14,42.84c8.79.11,17.61-.19,26.37.42,4.48.31,5.78-1.19,6.18-5.23.47-4.68,3.67-5.83,7.66-4.4,2.92,1.04,5.73,2.55,8.37,4.19,8.54,5.29,17.85,6.87,27.64,5.72,4.62-.54,8.79-2.11,12.79-5.08,9.34-6.92,11.23-16.48,11.38-27.02v-7.06c0-1.98-.45-3.27-2.97-3.24-10,.13-20.01.06-30.02.06-1.5,0-2.33.35-2.77,2.16-1.97,8.18-3.88,9.09-11.65,5.37-6.5-3.12-12.51-7.42-19.92-8.28-14.63-1.7-26.56,1.06-33.21,14.84-3.9,8.08-3.74,16.71-3.61,25.36.04,2.93,2.14,2.18,3.75,2.2h0Z"/>
        </g>
        <path class="cls-1" d="M988.97,68.18c.45-5.29-1.32-6.6-6.41-6.57-28.83.21-57.66.1-86.49.1v-.33c-9.22,0-18.44-.03-27.65,0-20.39.08-40.79.2-61.18.29-2.54,0-4.49.02-4.27,3.74,1.1,18.55-1.77,37.12.52,55.72.48,3.88,1.45,4.58,4.43,4.66,14.11.38,28.22.79,42.31-.22,9.09-.65,10.03.05,10.03,9.21,0,41.4.03,82.8-.15,124.2-.02,4.08,1.02,5.15,5.14,5.09,20.2-.27,40.41-.3,60.62-.07,4.33.05,5.08-1.42,5.07-5.33-.1-41.21-.02-82.43-.03-123.64,0-8.12,1.42-9.62,9.48-9.5,12.53.18,25.06.64,37.59.42,11.78-.2,11.7,2.95,12.62-12.61.9-15.13-2.9-30.08-1.62-45.17h-.01Z"/>
        <path class="cls-1" d="M10.64,105.83c-.51-.02-1.01-.04-1.52-.06.15-.44.31-.89.46-1.33.35.46.7.93,1.05,1.39h0Z"/>
      </g>
    </g>
  </g>
</svg>