<?xml version="1.0" encoding="UTF-8"?>
<svg id="Layer_2" data-name="Layer 2" xmlns="http://www.w3.org/2000/svg" viewBox="0 0 1032.4 700.95">
  <defs>
    <style>
      .cls-1 {
        fill: #0a37a2;
      }
    </style>
  </defs>
  <g id="underbelly">
    <g>
      <path id="right-splash" class="cls-1" d="M520.13,453.98c.64,5.43,2.78,11.01-2.11,15.48.37.17.03.04-.29-.14-.22-.13-.4-.32-1-.83.35,1.69.61,2.98,1.09,5.3-1.84-1.12-2.96-1.8-4.84-2.94.89,11.32,6.61,20.93,8.04,31.58-3.63-8.18-7.26-16.37-10.88-24.55-.54-.08-1.08-.15-1.62-.23-10.97,21.07-21.94,42.14-32.92,63.21-.26-.12-.53-.23-.79-.35.4-1.08.7-2.2,1.21-3.22,9.15-18.55,18.32-37.1,27.5-55.64,4.87-9.84,4.8-12.58-1.24-23.4-2.58,3.68-4.81,7.17-7.4,10.38-1.12,1.39-3.01,2.15-4.48,3.29-1.85,1.43-3.9,2.71-5.41,4.45-5.19,6.02-9.9,12.4-13.11,19.76-2.46,5.64-4.88,11.31-7.26,16.84.07.11-.23-.36-.76-1.2-3.02,5.26-6.01,10.26-8.79,15.37-2.72,5.01-5.21,10.14-8.29,14.95,4.6-15.32,16.88-27.1,19.85-43.34-.03,1.25-.06,2.49-.11,4.41,5.45-7.73,4.63-16.5,7.7-24.32-.28,2.71-.57,5.41-.89,8.5,7.63-9.54,9.69-16.34,4.98-22.94-1.04,1.33-2.02,2.6-3.45,4.44-1.26-4.49-2.35-8.39-3.16-11.3-1.24,3.43-2.79,7.7-4.03,11.13-.23-1.44-.65-4-1.07-6.56-.37-.08-.74-.16-1.1-.24-.28,1.62-.64,3.23-.82,4.87-.22,1.94-.28,3.9-1.37,5.85.02-1.66.04-3.32.07-4.97-.21-.1-.42-.19-.62-.29-2.11,3.57-4.22,7.14-6.33,10.7.72.14,1.44.29,2.16.43.91-6.31,1.82-12.62,2.87-19.92l-5.16,3.25c-.16-3.7-.31-6.97-.46-10.24-.5-.07-1.01-.14-1.51-.22-1.69,5.61-3.42,11.21-5.07,16.83-1.65,5.61-3.24,11.24-4.85,16.86-.31-.08-.62-.16-.94-.23,2.8-10.45,5.6-20.9,8.4-31.35-15.28,18.43-21.45,40.59-26.54,63.44-.75-2.14-1.36-3.87-1.97-5.6.11-.74.22-1.47.33-2.21,1.73-4.86,3.95-9.62,5.09-14.62,2.04-8.9,3.42-17.95,5.94-26.84-.73,1.69-1.47,3.37-2.2,5.06-.26-.1-.51-.2-.77-.3,1.98-5.67,4-11.34,5.94-17.03.81-2.39,1.58-4.81,2.14-7.27,1.07-4.71-1.06-6.55-5.77-5.1-1.11.34-2.2.7-3.72,1.19,2.07-4.67,9.02-1.28,10.44-7.67-3.86,1.07-7.12,1.98-10.65,2.96-.31-3.35,1.45-4.26,3.68-4.56,1.44-.2,2.92,0,4.38-.09,2.66-.15,4.6-1.24,5.01-4.15.46-3.27.87-6.55,1.41-9.81.3-1.8,1.18-3.58,1.12-5.35-.06-1.71-1-3.38-1.55-5.07-1.54.54-3.68.63-4.5,1.72-2.06,2.73-3.9,5.75-5.16,8.93-2.86,7.2-7.47,13.04-12.65,18.69-3.26,3.55-5.35,8.16-8.15,12.16-1.37,1.95-3.17,3.6-4.77,5.39-.55-.21-1.1-.42-1.65-.63.1-2.19-.23-4.51.36-6.56,2.77-9.57,5.78-19.07,8.76-28.57.47-1.51,1.27-2.92,1.92-4.38-.45-.17-.9-.34-1.35-.52-1.05.39-2.1.79-3.83,1.43,1.14-3.35,2.11-6.22,3.08-9.08-.34-.17-.68-.33-1.02-.5-5.68,7.26-10.17,15.25-14.61,23.66.08-.95-.1-2.03.29-2.83,3.05-6.19,6.18-12.33,9.36-18.45.59-1.14,1.5-2.12,2.27-3.17-.92-.37-1.85-.74-2.77-1.12-2.43,2.83-4.86,5.66-7.3,8.49l-.77-.31c.95-3.17,1.91-6.34,3.16-10.5-13.81,7.3-24.5,16.41-31.84,29.33-.35-.31-.71-.61-1.06-.92,1.43-2.77,2.85-5.53,4.28-8.3-.28-.23-.57-.46-.85-.69-4.11,2.15-8.21,4.31-12.32,6.46.29.6.58,1.2.87,1.81,1.75-.76,3.5-1.52,5.72-2.48-1.2,4.11-1.79,8.32-3.65,11.86-1.88,3.58-5.03,6.5-7.63,9.72-.35-.28-.69-.55-1.04-.83,1.84-2.4,3.67-4.8,6-7.84-2.74.82-4.52,1.35-6.44,1.92.72-2.45,1.28-4.38,1.85-6.31-.5-.27-1-.55-1.5-.82-6.12,6.98-12.23,13.95-18.35,20.93-.18-.06-.35-.12-.53-.18.75-1.29,1.33-2.74,2.29-3.85,5.98-6.96,12.05-13.83,18.06-20.76,1.25-1.44,2.33-3.04,4.17-5.47-6.85,3.05-9.61,10.34-16.13,10.4-.02-2.53-.31-4.88.05-7.12.24-1.47,1.37-2.82,2.19-4.16,2.92-4.81,5.89-9.6,8.83-14.4-.42-.4-.83-.81-1.25-1.21-1.09.69-2.38,1.18-3.22,2.09-3.43,3.7-7.56,6.66-9.86,11.57-1.55,3.32-4.9,5.78-7.37,8.68-2.84,3.32-5.55,6.75-8.42,10.04-1.38,1.58-2.99,2.97-4.49,4.44-.31-.27-.63-.54-.94-.81.44-.84.8-1.74,1.33-2.52,3.79-5.49,7.4-11.13,11.51-16.37,3.6-4.58,7.73-8.75,11.71-13.02,5.5-5.9,11.19-11.62,16.57-17.62,3.88-4.33,7.4-8.98,11.05-13.52.37-.46.52-1.09.24-2.18-2.71,2.05-5.41,4.1-8.12,6.15-.28-.28-.57-.56-.85-.85,1.31-1.49,2.61-2.97,3.92-4.46-.08-.36-.16-.73-.24-1.09-2.22.17-4.44.39-6.67.51-4.61.24-7.99,1.73-10.28,6.37-1.12,2.26-4.85,3.18-7.29,4.87-3.11,2.16-6.36,4.23-9.08,6.83-2.34,2.24-4.52,4.93-5.89,7.83-3.26,6.95-9.68,10.84-14.54,16.22-5.98,6.63-11.4,13.76-16.64,21.06,7.7-4.39,13.31-11.45,20.97-15.67.22.27.44.54.65.81-5.78,5.57-11.56,11.13-17.34,16.7.57.27,1.14.55,1.71.82-.13,1.2.02,2.54-.46,3.57-.77,1.62-1.97,3.03-3.7,5.58,9.34-1.45,17.31-1.55,20.11,9.49,2.84-2.63,5.4-5,7.96-7.37.1.08.2.16.3.24-2.4,3.37-4.8,6.73-7.21,10.1.23.21.45.42.68.63,1.04-.24,2.09-.49,3.13-.73.3.22.6.43.89.65-4.11,7.19-8.21,14.38-12.32,21.57.11.2.22.4.33.61,2.78-2.39,5.6-4.75,8.34-7.18,2.86-2.53,5.67-5.14,8.5-7.72.24.22.47.44.71.66-8.44,10.68-16.89,21.36-25.33,32.04-.54-.29-1.09-.59-1.63-.88.54-.67,1.07-1.33,1.61-2-.27-.06-.55-.13-.82-.19-1.62,1.66-3.24,3.31-4.86,4.97l-.72-.58c4.36-5.79,8.73-11.57,13.39-17.76-9.79.44-16.24,5.21-21.72,11.76-.23-.25-.46-.51-.69-.76,1.2-1.51,2.55-2.93,3.57-4.56.89-1.42,1.4-3.06,2.07-4.61-1.19-.02-2.52.31-3.53-.12-4.29-1.81-7.11.89-10.1,3.05-2.25,1.63-4.2,3.49-7.52,2.58-1.08-.3-2.82,1.16-4.02,2.12-4.02,3.2-7.92,6.54-12.25,9.46,7.26-7.11,14.52-14.22,21.79-21.32-.19-.29-.39-.57-.58-.86-1.05.55-2.09,1.12-3.16,1.64-2.79,1.36-5.48,3.12-8.43,3.94-7.79,2.17-14.39,6.15-19.79,12.08-2.59,2.85-4.86,5.98-7.3,8.96-.58.71-1.14,1.58-1.91,1.99-13.67,7.19-22.74,19.69-34.12,29.51-1.11.96-2.17,1.96-3.31,2.89-.27.22-.73.21-2.1.57,1.12-1.47,1.65-2.41,2.39-3.11,6.88-6.47,14.41-12.36,20.55-19.45,8.75-10.11,20.24-17.67,27.09-29.52,3.12-5.39,6.2-10.89,10.06-15.73,2.7-3.39,6.77-5.66,10.05-8.63,3.93-3.56,7.68-7.33,11.51-11.01-.32-.36-.64-.73-.96-1.09-4.41,2.78-8.83,5.57-13.24,8.35-.18-.17-.36-.35-.54-.52.81-.78,1.55-1.66,2.45-2.33,5.77-4.29,11.66-8.42,17.33-12.85,2.77-2.16,6.04-3.81,6.02-8.58,0-2.17,3.05-4.41,4.84-6.52,2.74-3.22,5.58-6.35,8.38-9.53-.22-.4-.43-.8-.65-1.19-3.93,1.94-7.88,3.85-11.78,5.83-2.01,1.02-3.95,2.18-5.91,3.27-.34-.43-.68-.85-1.02-1.28,1.14-1.25,2.2-2.59,3.43-3.73,3.54-3.27,7.08-6.54,10.76-9.66,2.39-2.02,4.8-4.21,7.57-5.54,5.9-2.83,10.29-6.86,14.37-12.12,4.16-5.37,6.58-12.82,14.06-14.64-2.13-1.94-4.04-3.85-6.16-5.5-.49-.38-1.78-.02-2.56.34-7.1,3.25-14.44,6.1-21.19,9.98-16.86,9.69-33.44,19.88-50.15,29.82-1.52.9-3.26,1.44-4.89,2.15-.33-.41-.67-.82-1-1.24,1-1.07,1.82-2.46,3.03-3.15,7.28-4.16,14.71-8.04,21.93-12.29,1.82-1.07,3.03-3.16,4.55-4.76.81-.85,1.59-1.78,2.55-2.43,9.23-6.32,18.47-12.64,27.77-18.86,1.98-1.32,4.21-2.27,6.35-3.33,2.25-1.12,4.93-1.86,4.03-5.37-.08-.31.16-.82.41-1.07,7.25-7.3,10.98-17.8,20.76-22.84,1.39-.72,2.64-1.85,3.68-3.04.8-.91,1.86-2.49,1.54-3.25-.46-1.12-1.93-2.11-3.18-2.53-1.16-.39-2.65-.16-3.91.15-21.08,5.2-41.26,12.91-61.21,21.44-12.94,5.53-26.42,9.77-39.49,15-8.34,3.34-16.29,7.62-24.57,11.14-10.72,4.55-21.58,8.74-32.39,13.09-1.8.73-3.6,1.47-5.4,2.21l-.78-1.09c1.04-.83,1.96-1.93,3.13-2.44,17.94-7.78,35.89-15.53,53.89-23.19,8.92-3.8,17.94-7.37,26.9-11.07,21.56-8.92,43.16-17.75,64.64-26.87,4.35-1.85,8.23-4.82,12.33-7.27,3.4-2.03,6.81-4.03,10.2-6.07,1.53-.92,3.02-1.9,4.28-3.59-2.75.46-5.49.92-8.24,1.38-.15-.45-.3-.9-.45-1.34,5.9-2.31,12.01-6.85,17.66-6.34,6.95.62,10.29-4.07,15.74-5.26-2.85-4.65-3.38-4.61-7.34-2.58-4.48,2.29-9.14,4.24-13.8,6.13-5.61,2.26-11.3,4.3-16.96,6.44-.31-.3-.62-.61-.93-.91,1.01-1.08,1.83-2.66,3.08-3.14,3.46-1.34,7.18-2,10.62-3.37,1.8-.72,3.15-2.5,4.85-3.57,1.61-1.02,3.47-1.65,5.12-2.61,2.54-1.47,5.33-2.74,7.38-4.75,1.78-1.74,1.48-4.32-.83-5.88-3.92-2.65-7.94-5.14-11.96-7.63-1.7-1.05-3.51-1.94-5.26-2.91.18-.51.37-1.01.55-1.52,1.6.41,3.26.68,4.79,1.27,2.97,1.15,5.8,2.68,8.81,3.66,2.23.73,4.41.98,4.51-2.82.03-1.22,2.57-2.38,5.45-3.64-2.62-3.71-4.66-8.14-8.04-10.94-3.42-2.84-8.17-4.07-12.34-6.01l.56-1.53c5,1.22,10,2.43,15.54,3.78-.65-4.38-3-5.29-5.56-5.55-2.63-.27-5.34.13-7.96-.21-1.1-.14-2.06-1.44-3.08-2.22,1.05-.7,2.13-2.04,3.16-2,4.62.16,9.23.76,13.84,1.12,3.82.29,7.65.46,12.44.74-1.31-1.05-1.89-1.51-2.9-2.33,1.95-1.01,3.59-1.87,5.23-2.72-.04-.27-.08-.55-.13-.82-1.76.13-3.51.27-5.79.44-.9-4.29-5.04-2.86-8.4-3.31-2.21-.3-4.4-.71-7.21-1.17,1.01-1.31,1.45-1.88,2.22-2.87-1.54.44-2.68.77-3.81,1.09.93,5.56.69,5.71-5.29,3.61-2.85,7.43-11.15,10.92-17.59,7.56l-5.95,3.75c-2.5-9.35-9.08-4.88-14.9-4.45.48-4.89,2.52-10.64-5.63-10.67.61-1.86,1.06-3.23,1.5-4.59-3.89-2.27-4.18-3.65-1.91-7.42.64-1.06,1.04-2.41,1.08-3.65.18-6.04,2.86-10.53,7.68-14.12,5.17-3.85,10.06-8.09,15.11-12.19,3.83.68,7.79,1.39,11.76,2.1.39.07.82.11,1.15.3,4.44,2.59,8.98,5.04,13.26,7.88,2.89,1.92,6.92,1.78,8.99,5.08,4.92-1.1,8.79,1.36,12.99,3.31,1.57.73,4.2-.87,6.36-1.32,3.02-.62,6.06-1.16,9.02-1.73-.15-.43-.68-1.93-1.32-3.76,4.88-.87,7.65,1.4,9.74,4.63,5.25,8.09,9.49,8.01,14.4-.04-.68-1.54-1.72-2.82-1.74-4.12-.07-5.71-4.65-7.64-8.38-10.08-6.54-4.27-13.23-8.34-19.99-12.26-4.86-2.82-9.94-5.25-15.08-7.94,1.57-3.01,3.04-3.68,5.17-2.12.11.08.22.15.31.25,6.49,7.2,15.3,9.98,24.03,13.3,4.8,1.82,8.55,6.25,13.19,8.73,3.86,2.06,8.33,3,12.52,4.44.16-.44.32-.89.49-1.33-3.26-2.32-6.59-4.55-9.74-7-.88-.68-1.82-2.06-1.72-3.01.08-.79,1.78-2.1,2.53-1.96,1.06.19,1.91,1.52,3.36,2.81.59-.06,2.09-.22,3.59-.38q-.34-3.6-9.56-12.69c-1.87,1.47-3.46,3.56-5.48,4.14-4.34,1.25-8.46-3.15-6.27-6.98,2.61-4.58,1.56-7.53-1.85-10.61-.51-.46-.69-1.28-.45-2.59,1.67,1.16,3.37,2.28,5,3.49,4.13,3.06,8.98,5.54,12.16,9.39,4,4.83,6.51,1.05,9.81-.11,1.51-.53,3.37-.09,5.15-.09-.22-1.3-.49-2.9-.86-5.12,1.93.98,3.27,1.66,4.62,2.35.1-.13.2-.25.3-.38-1.29-1.17-2.59-2.35-3.88-3.52.08-.29.15-.58.23-.87,2.73.28,5.46.57,8.98.93,7.66-3.95,16.15-8.33,25.53-13.16.19,2.26,1.39,5.77.37,6.62-2.36,1.98-5.8,2.68-9.26,4.08,5.11,3.82,10.69,7.98,16.27,12.15.39-.29.78-.59,1.17-.88.02-1.46.04-2.92.06-4.89,1.3.89,2.38,1.63,3.99,2.73,2.08-2.7,4.16-5.4,6.38-8.28.36,1.25.7,2.43,1.24,4.28,6.32-3.16,4.18-10,7.44-15.16,1.08,5.03-2.72,9.19-.77,13.27.43.15.87.29,1.3.44,1.03-1.85,2.56-3.59,2.99-5.57,1.8-8.27,3.14-16.64,4.88-24.93,2.2-10.48,1.54-21.09,2.13-31.66.51-9.2,2.84-18.29,4.22-27.45,1.19-7.9,2.15-15.83,3.31-23.73.25-1.67.97-3.27,1.47-4.9.46.11.91.21,1.37.32-.3,2.62-.54,5.25-.9,7.86-.48,3.53-1.14,7.05-1.57,10.58-1.01,8.33-1.84,16.68-2.9,25-.9,7.03-.65,13.86.49,20.96.99,6.18-.58,12.8-1.24,19.21-.23,2.22-1.22,4.36-1.68,6.57-1.7,8.14-.56,10.76,7.51,16.09-.39-5.97-.74-11.26-1.08-16.55.44-.11.89-.22,1.33-.33.62.99,1.87,2.05,1.78,2.96-1,9.36,4.97,14.92,10.9,20.53,1.2,1.14,2.51,2.16,4.57,3.91.11-5.13.04-9.65,6.54-10.75.83,2.03,2.81,4.49,2.49,6.61-.73,4.89-5.46,3.41-8.75,4.02,1.15,4.95,3.96,6.27,7.41,3.85l-.51,4.72-.57,5.22-27.84,256.44Z"/>
      <g id="top-right-splash">
        <g>
          <path class="cls-1" d="M356.81,618.04c-1.78-3.11-4.97-4.9-8.02-4.05-5,1.39-10.97,2.85-14.09,6.42-3.41,3.9-5.12,8.35-11.39,6.25-.35-.12-.98.57-1.9,1.16-.55-1.78-.9-3.16-1.39-4.49-1.31-3.62-4.11-5.4-6.94-3.94-2.87,1.48-5.29,3.58-8.93,3.45-.84-.03-2.06,2.77-2.58,4.43-.44,1.41-.14,3.06-.15,3.91,2.41.15,5.19-.49,6.18.55,1.98,2.09.22,4.32-1.46,6.23-.93,1.06-1.49,2.46-2.15,3.73-1.81,3.52-3.65,7.02-5.35,10.59-.52,1.09-.61,2.39-1.11,4.53,2.02-1.27,2.99-1.89,3.97-2.5.23.21.47.41.7.62-1.8,3.26-3.6,6.51-5.4,9.77.18.12.36.24.55.36,1.39-1.02,2.77-2.05,4.16-3.07.27.18.53.37.8.55l-2.37,7.67c1.4-1.08,2.27-2.54,3.43-3.73.76-.78,1.93-1.17,2.92-1.73.49,1.14,1.34,2.27,1.38,3.42.09,2.52-.24,5.06-.46,8.56,1.68-2.81,2.81-4.71,3.94-6.61.31.14.62.28.93.41-.47,2.65-.93,5.29-1.37,7.77,2.45-2.18,4.65-4.14,6.86-6.1l4.62,7.32c.35.23.69.46,1.04.68.31-2.89.81-5.77.89-8.66.11-3.97,2.01-5.37,6.09-4.32,1.25-4.43,2.43-8.61,3.73-13.23.44,1.41.76,2.43,1.13,3.62.66-.51,1.15-.77,1.49-1.15.95-1.08,1.83-2.21,2.71-3.28-2.25-4.92-2.15-5.22,1.85-5.28,0,1.41,0,2.81.01,4.21,1.26-.83,1.44-1.8,1.87-2.66.38-.77,1.02-1.41,1.54-2.11.61.65,1.15,1.4,1.86,1.92.73.53,1.69,1.26,2.44,1.15,3.16-.49,6.28-1.26,9.42-1.93-.61-1.41-2.06-3.1-1.76-4.37.99-4.21,2.77-8.23,3.92-12.41.55-2,.91-4.39.33-6.28-.8-2.61-2.55-4.94-3.94-7.36Z"/>
          <path class="cls-1" d="M750.35,442.31c-1.6-.98-3.39-2.08-5.78-3.54,1.83-.61,2.81-.93,4.53-1.5-2.99-2.11-5.17-4.2-7.77-5.37-5.28-2.39-10.76-4.41-16.73-2.22-5.54,2.03-7.95,6.46-9.86,11.71-1.26,3.49-3.01,7.62-5.84,9.53-3.25,2.19-7.93,2.27-12.01,3.2-.35.08-.82-.31-.88-.33-.36,1.39-.51,2.65-.99,3.77-1.52,3.53-3.69,6.88-4.6,10.55-1.05,4.22-1.04,8.71-1.48,13.08.51-.3,1.02-.6,1.53-.9,2.58,1.39,5.16,2.79,7.86,4.25.43-.58.95-1.27,1.82-2.43,1.49,2.09,2.6,3.65,3.72,5.21-.48-.07-.96-.15-1.45-.22-1.2,2.41-3.39,4.82-3.39,7.23,0,4.37,3.44,6.86,7.25,8.51,6.03-4.71,6.92-7.64,3.55-12.11-1.89-2.51-5.74-4.21-1.23-8.11,2.82-2.44,4.54-6.15,6.75-9.28.87-2.12-.64-6.06,5.4-4.23-4.1-2.6-2.76-5.65-1.35-8.23,1.08-1.98,2.04-5.89,5.8-2.53.21.19.97-.31,1.48-.36,2.56-.26,5.13-.47,7.35-.67,2.59-2.04,5.1-4.02,7.78-6.13.71,1.13,1.46,2.32,2.21,3.51.14-.06.28-.11.42-.17-.51-1.95-1.03-3.9-1.84-6.96,1.34,1.36,1.76,1.85,2.25,2.27.44.37.96.66,1.07.74-.56-2.6-1.14-5.27-1.72-7.93,2.06-.12,4.11-.23,6.12-.34Z"/>
          <path class="cls-1" d="M548.33,568.93c-.99-.4-1.75-2.31-2.47-2.23-3.62.4-7.21,1.12-10.76,1.97-1.52.36-2.9,1.31-5.23,2.42,4.77-7.04,4.33-9.17-2.21-14.19-1.76,4.58-3.5,9.09-5.41,14.05,2.25-.05,3.74-.08,4.83-.1-1.99,6.98-3.96,13.84-6.09,21.3,1.63-.11,2.53-.17,4.22-.29-1.44,5.19-2.64,9.49-3.65,13.14,1.73,3.22,3.5,6.49,5.21,9.79.13.26-.09.8-.29,1.12-1.84,3.03.33,5.32,2.27,6.29,2.24,1.11,5.45,1.46,7.78.72,1.35-.43,2.22-3.6,2.58-5.66.74-4.19-1.53-8.54,2.35-12.68,2.63-2.81,3.12-3.7,5.69-.43.13-1.1.25-2.2.41-3.58,3.44.57,4.43-1.56,5.05-4.22.3-1.28.55-3.16,1.43-3.62,4.84-2.53-.19-7.58,2.89-10.42-3.68-3.91-2.53-10.9-8.58-13.37Z"/>
          <path class="cls-1" d="M547.25,604.28s-.07-.09-.11-.14c0,.04,0,.08-.01.12l.12.02Z"/>
          <path class="cls-1" d="M212.24,497.84c4.79.92,8.98,4.83,14.46,2.63,2.2-.88,4.79-.77,7.21-1.12.11.36.21.73.32,1.09-4.72,4.42-9.44,8.84-14.16,13.26.36.39.72.77,1.07,1.16,15.26-13.1,33.66-22.62,44.96-40.24-.23-.3-.46-.61-.68-.91-3.39,2.6-6.77,5.2-10.16,7.81-.19-.18-.39-.36-.58-.53,1.78-2.51,3.56-5.01,5.35-7.52-.28-.29-.55-.57-.83-.86-2.9,1.83-5.83,3.61-8.7,5.5-2.77,1.83-5.17,3.36-8.84,1.18-1.75-1.04-4.82.08-7.28.36-1.15.13-2.25.83-3.39.86-8.45.24-16.95,6.43-19.28,14.35-.27.91.16,2.91.54,2.99Z"/>
          <path class="cls-1" d="M270.29,616.28c-2.19-.42-4.56.12-7.76.27,3.96-6.77,7.54-12.9,11.13-19.04,0,0-.02,0-.03,0,.01,0,.03,0,.03,0,7-10.29,14-20.58,21-30.87-.39-.26-.79-.52-1.18-.78-8.07,9.63-13.68,20.87-20.13,31.55-4.1,5.88-8.21,11.76-12.31,17.64-.59-.37-1.19-.75-1.78-1.12,3.97-6.67,7.94-13.33,11.91-20-.23-.16-.47-.31-.7-.47-7.07,9.79-14.15,19.59-20.87,28.89,1.18,1.19,3.83,2.62,4.29,4.56,1.26,5.36,1.08,10.76-3,15.33-.88.98-1,2.65-1.47,4,.34.15.67.3,1.01.45.91-1.38,1.69-2.87,2.77-4.1.6-.68,1.68-.94,2.54-1.39.37,1.06,1.09,2.15,1.02,3.18-.06.92-1.06,1.76-1.53,2.69-1.05,2.05-2.03,4.14-3.03,6.21.4.3.79.59,1.19.89,1.47-4.3,3.98-6.88,8.5-8,5.93-1.47,4.85,6.09,9.86,6.45.54-3.05.72-6.11,1.67-8.93,1.29-3.85,3.56-7.4,4.69-11.29,2.33-7.99-1.04-14.82-7.79-16.12Z"/>
          <path class="cls-1" d="M234.26,548.07c-.29-.22-.58-.44-.87-.65-1.52,1.21-3.03,2.43-5,4,1.74-9,10.09-12.66,14.1-19.31-.36-.29-.73-.59-1.09-.88-1.38,1-2.92,1.85-4.12,3.03-6.13,6.02-12.26,12.05-18.21,18.24-3.49,3.62-6.49,7.7-9.93,11.37-8.67,9.27-21.17,20.96-31.9,40.41-3.4,6.16-7.19,10.63-11.47,16.21-.63.82-.91,1.89-1.38,2.83-1.15,2.29-1.95,4.87-3.54,6.8-3.89,4.7-8.18,9.06-12.22,13.63-1.2,1.36-2.1,2.97-3.14,4.47,1.32.03,2.01-.38,2.53-.94,6.82-7.43,13.66-14.85,20.42-22.33,6.94-7.69,13.78-15.46,20.73-23.15,1.05-1.16,2.68-1.82,3.63-3.04,4.69-6.03,7.47-11.97,12.43-17.76,7.68-8.97,15.87-17.51,23.72-26.35,1.58-1.78,4.05-4.52,5.32-6.58Z"/>
          <path class="cls-1" d="M400.7,548.16c1.23-.43,2.52-.87,4.06-1.41.19,1.93.33,3.46.48,4.98.24,0,.48-.02.71-.03.57-1.32,1.14-2.65,1.71-3.97.28.05.56.09.85.14.37,2.62.74,5.24,1.2,8.48,3.09-4.45,5.61-8.09,8.6-12.41.65,2.95,1.1,4.98,1.54,7.01.55,0,1.09,0,1.64,0-.13-1.38-.15-2.79-.4-4.14-.6-3.17-2.28-6.43,1.73-8.82.63-.38.53-2.16.58-3.3.11-2.49,0-4.98.17-7.47.11-1.74.53-3.45.81-5.18-.21-.02-.41-.03-.62-.05-.6,1.31-1.2,2.63-1.8,3.94-.29-.12-.57-.23-.86-.35.45-2.88.9-5.77,1.45-9.28-1.86.77-3.53,1.46-5.2,2.15.12.33.23.66.35.99.67-.14,1.34-.29,2.39-.51-.49,1.19-.9,2.2-1.43,3.5-4.92-4.88-10.21-1.39-13.89-1.55-2.14,1.86-4.02,2.74-4.6,4.15-1.43,3.47-2.21,7.2-3.35,10.79-.44,1.37-1.15,2.66-1.78,3.97-.91,1.91-1.84,3.8-2.59,5.34,1.95-1.23,3.94-2.48,5.92-3.74.76,2.2,1.52,4.41,2.33,6.75Z"/>
          <path class="cls-1" d="M380.35,539.63c-.66-1.48,23.44-50.49,21.19-51.09-.78-.21-29.31,49.22-30.21,49.22-1.61-.01-3.69.29-4.72-.57-2.72-2.26-5.41-1.79-8.17-.76-3.31,1.23-6.53,2.73-9.76,4.11-.59,4.35-1.15,8.47-1.73,12.77.7-.05,1.64-.13,2.06-.16,1.05,2.32,1.9,4.2,2.83,6.26,1.79-2.32,3.62-3.65,4.61-.52,2.05.06,3.66.4,5.11.06,1.44-.33,3.16-1.02,3.99-2.13,2.76-3.67,4.85-7.96,10.4-8.01.71,0,1.45-.62,2.11-1.06,3.09-2.04,3.46-5.49,2.3-8.13Z"/>
          <path class="cls-1" d="M442.53,594.15c1.52-.24,3.11-.02,4.71,0,.48-1.27,1.1-2.92,1.72-4.58.63.16,1.26.31,1.89.47-.71,6.46-1.42,12.92-2.13,19.38.39.09.77.17,1.16.26,1.44-8.95,7.24-16.79,5.79-26.75-1.28.44-2.36.82-3.84,1.33-.48-2.25-.68-4.09-1.26-5.8-2.37-6.92-7.48-8.34-12.7-3.24-2.1,2.05-4.03,4.8-4.83,7.58-1.93,6.74,1.25,12.67,9.49,11.36Z"/>
          <path class="cls-1" d="M449.54,621.89c-7.56,2.26-11.35,13.62-6.51,19.85,1.27,1.63,3.07,2.86,4.69,4.33.26-.47.65-1.19,1.14-2.08.86.79,1.53,1.4,2.26,2.07,1.26-1.18,2.13-2.42,3.31-3.03,4.47-2.32,5.46-6.52,5.83-10.85.52-5.98-5.73-11.79-10.73-10.3Z"/>
          <path class="cls-1" d="M192.68,531.56c-.28-.32-.57-.64-.85-.96-.97.2-2.18.09-2.86.63-28.05,22.49-51.47,49.88-78.59,73.37.32.53.64,1.06.97,1.59,1.02-.4,2.25-.56,3-1.25,2.35-2.14,4.43-4.58,6.78-6.73,22.55-20.63,45.15-41.21,67.69-61.86,1.5-1.37,2.58-3.19,3.86-4.8Z"/>
          <path class="cls-1" d="M413.22,606.07c-.16-.98.32-2.05.37-2.33-1.65-.73-3.09-1.37-5.33-2.36-.32.16-1.32.79-2.4,1.21-7.27,2.79-10.5,5.45-8.09,14.94.36,1.42.04,3.12-.31,4.61-.76,3.24-1.74,6.44-2.64,9.65.31.05.62.1.93.14.8-.83,1.61-1.67,2.41-2.5.31.17.63.34.94.52-.41,2.05-.83,4.11-1.24,6.16.33.08.66.15,1,.23,1.14-2.65,2.11-5.39,3.46-7.92,1.58-2.96,3.13-6.07,5.34-8.53,3.6-4.01,6.48-8.03,5.56-13.79Z"/>
          <path class="cls-1" d="M291.71,625.91c-2.95,1.41-5.91,3.83-7.59,6.58-2.28,3.75-3.33,8.23-4.75,11.99.8-.45,2.18-1.21,3.57-1.98.26.22.51.44.77.65-.62,2.01-1.23,4.03-1.85,6.04.2.15.39.31.59.46,1.31-1.13,2.61-2.26,3.74-3.24.85.27,1.76.91,2.42.71,6.65-2.04,11.18-8.41,11.09-15.4-.06-4.58-3.93-7.76-7.98-5.82Z"/>
          <path class="cls-1" d="M113.38,431C75.58,447.19,37.79,463.38,0,479.57c.11.33.22.66.33.99,1.47-.54,2.97-1.02,4.42-1.62,9.58-4,19.13-8.05,28.71-12.04,25.06-10.44,50.13-20.84,75.17-31.31,1.94-.81,3.7-2.06,5.54-3.1-.26-.5-.53-.99-.79-1.49Z"/>
          <path class="cls-1" d="M531.37,637.07c.33-3.63-.76-6.28-3.54-7.7-1.78-.91-4.88-1.04-6.51-.06-3.08,1.85-3.72,7.32-1.96,10.37,1.57,2.7,3.7,4.03,6.95,2.93,1.02-.35,2.19-.27,2.26-.28,1.46,2.65,2.49,4.53,3.53,6.42.26-.16.53-.32.79-.48,0-.25,0-.5-.03-.74-.55-3.49-1.8-7.04-1.49-10.46Z"/>
          <path class="cls-1" d="M232.45,597.77c-3.39,2.2-5.98,10.21-3.57,12.47,1.5,1.41,4.22,1.51,5.52,1.92,5.89-3.75,8.15-10.02,5.87-13.71-1.77-2.87-4.12-3.08-7.81-.68Z"/>
          <path class="cls-1" d="M170.3,590.48c3.59-3.38,11.38-8.5,15.5-12.39,1.36,4.44-.15,7.12,2.81,4.79,3.6-2.83,5.41-7.5,3.38-10.05,4.65-4.73,9.14-9.29,13.63-13.85-.35-.36-.7-.72-1.05-1.08-10.45,9.85-25.11,21.45-35.56,31.3.43.43.87.86,1.3,1.29Z"/>
          <path class="cls-1" d="M168.19,408.17c-18.16,7.8-35.51,15.26-52.85,22.71,6.48.48,51.56-18.95,52.85-22.71Z"/>
          <path class="cls-1" d="M592.41,566.84l30.23,75c.42-.17.85-.34,1.27-.51-10-25.03-19.99-50.07-29.99-75.1-.5.2-1,.4-1.51.6Z"/>
          <path class="cls-1" d="M214.28,599.91c1.23-2.28,2.34-4.18,3.29-6.15,1.22-2.51-.18-4.48-2.31-4.84-1.93-.33-4.82.15-5.98,1.44-1.45,1.62-2.34,4.57-1.96,6.67.22,1.19,3.45,1.86,5.36,2.69.46.2,1.03.13,1.59.19Z"/>
          <path class="cls-1" d="M213.29,602.23c-4.01,2.58-6.01,7.36-4.04,9.02,1.15.97,4.12.67,5.81-.09,3.16-1.42,4.21-5.19,2.18-7.57-.93-1.09-3.11-1.1-3.95-1.36Z"/>
          <path class="cls-1" d="M490.5,688.83c-1.53,1.75-3.45,3.59-3.92,5.7-.36,1.63.8,3.99,1.99,5.47,1.29,1.62,3.39,1.04,4.02-.87.89-2.68,1.17-5.57,1.73-8.42-1.94-.98-3.63-2.09-3.81-1.89Z"/>
          <path class="cls-1" d="M419.89,596.82c-4.37,2.16-2.19,5.82-1.4,9.86,2.12-.6,5.62-.67,6.12-1.94.88-2.21.11-5.19-.47-7.74-.09-.4-3.07-.76-4.25-.18Z"/>
          <path class="cls-1" d="M438.27,542.71c.38-1.19.89-2.78,1.4-4.37-1.5-.35-2.99-.9-4.5-.98-1.14-.06-2.31.57-3.48.74-3.07.45-2.91,2.91-2.54,4.84.14.7,2.42,1.39,3.71,1.36,1.52-.03,3.03-.84,5.41-1.59Z"/>
          <path class="cls-1" d="M445.86,662.53c-2.43,3.75-.77,7.03,4.17,8.53.65-2.41,1.61-4.53,1.66-6.66.03-1.46-1.23-2.94-1.91-4.41-1.34.83-3.15,1.35-3.92,2.54Z"/>
          <path class="cls-1" d="M252.44,546.28c.32.32.64.64.97.97,9.11-9.98,18.21-19.96,27.32-29.93-.32-.29-.63-.58-.95-.87-9.11,9.94-18.22,19.89-27.34,29.83Z"/>
          <path class="cls-1" d="M284.95,447.42c-.29-.36-.58-.73-.86-1.09-7.3,5.53-14.6,11.07-21.91,16.6.34.42.68.83,1.02,1.25,7.66-5.07,15.13-10.38,21.75-16.76Z"/>
          <path class="cls-1" d="M172.76,645.11c.28.25.56.49.84.74,8.86-9.88,17.71-19.77,26.57-29.65-.39-.32-.78-.64-1.17-.95-8.75,9.96-17.49,19.91-26.24,29.87Z"/>
          <path class="cls-1" d="M383.74,592.11c-.85-.05-2.58-.59-3.93-.11-1.93.69-2.84,5.53-1.27,6.98.85.78,3.01,1.08,4.04.55,2.56-1.31,3.41-3.6,1.16-7.42Z"/>
          <path class="cls-1" d="M435.9,563.07c2.39-1.51,5.24-2.63,6.97-4.69.83-.99-.56-3.74-.74-5.72-.08-.94.33-1.93.52-2.9-.27-.13-.54-.26-.81-.38-2.33,4.19-4.65,8.39-6.98,12.58.35.37.69.74,1.04,1.1Z"/>
          <path class="cls-1" d="M615.51,525.64c1.29-.78,1.44-3.46,2.5-6.54-3.16-.04-5.55-.76-6.87.12-1.04.7-1.6,4.07-.84,4.99,1,1.21,4.07,2.11,5.21,1.43Z"/>
          <path class="cls-1" d="M235.44,430.02c-.27-.46-.53-.92-.8-1.39-7.38,3.8-14.76,7.59-22.14,11.39.28.55.57,1.1.85,1.64,7.36-3.88,14.72-7.77,22.09-11.65Z"/>
          <path class="cls-1" d="M436.17,652.29c-2.31,1.14-2.94,3.59-1.54,5.76.56.87,2.46.87,4.96,1.65.25-2.81.87-4.7.37-6.21-.27-.79-2.87-1.66-3.79-1.21Z"/>
          <path class="cls-1" d="M382.33,627.07c.56.16,1.12.33,1.68.49,2.6-7.91,5.2-15.81,7.8-23.72-.38-.12-.75-.25-1.13-.37-2.78,7.86-5.57,15.73-8.35,23.59Z"/>
          <path class="cls-1" d="M454.11,653.88c-.96,1.81-1.43,3.88-2.37,6.78,2.34.04,4.32.42,4.5.02.81-1.88,1.12-3.97,1.6-5.98-1.3-.3-3.57-1.11-3.73-.81Z"/>
          <path class="cls-1" d="M419.14,651.53c-3.5.85-3.6,3.68-2.86,6.94,3.16.47,5.65-.1,5.66-3.41,0-1.24-2.14-3.69-2.8-3.52Z"/>
          <path class="cls-1" d="M200.67,502.9c-.11-.51-3.48-1.17-3.89-.64-1.04,1.36-1.25,3.36-1.79,5.1,1.41.38,2.83.76,5.04,1.36.35-2.47.95-4.24.63-5.82Z"/>
          <path class="cls-1" d="M337.01,541.35c.44-1.72,1.25-3.46,1.13-5.15-.04-.58-2.36-1.01-4.61-1.88-.45,2.63-1.37,4.54-.8,5.76.42.89,2.78.88,4.28,1.26Z"/>
          <path class="cls-1" d="M476.96,522.73c2.17-4.12,4.03-7.63,5.96-11.28-6.23,1.37-8.62,4.64-5.96,11.28Z"/>
          <path class="cls-1" d="M221.69,583.11c4.8-1.3,6.62-4.53,5.41-9.25-2.97,2.37-5.91,4.48-5.41,9.25Z"/>
          <path class="cls-1" d="M381.15,215.19c-4.74-3.33-9.48-6.66-14.22-9.98-.3.43-.59.86-.89,1.29,4.79,3.25,9.58,6.51,14.37,9.76.24-.36.49-.71.73-1.07Z"/>
          <path class="cls-1" d="M417.47,639.25c-2.31,8.17-4.61,16.35-6.92,24.52.28.07.56.14.84.21,2.29-8.18,4.59-16.35,6.88-24.53-.27-.07-.53-.13-.8-.2Z"/>
          <path class="cls-1" d="M276.79,545.79c4.54-5.93,9.08-11.86,13.62-17.79-.24-.19-.49-.38-.73-.57-4.57,5.9-9.14,11.8-13.71,17.7.28.22.55.43.83.65Z"/>
          <path class="cls-1" d="M333.27,663.19c2.3,5.23,4.6,10.45,6.9,15.68.34-.15.68-.29,1.03-.44-2.25-5.3-4.5-10.59-6.74-15.89-.39.22-.79.43-1.18.65Z"/>
          <path class="cls-1" d="M424.28,509.7c.11-.74.22-1.47.33-2.21.02-.89.03-1.77.03-1.47-.61,2.48-1.46,5.97-2.31,9.42,3.37-.87,1.75-3.65,1.95-5.74Z"/>
          <path class="cls-1" d="M718.57,489.1c.99,2.62,1.97,5.23,2.96,7.85.69-.25,1.38-.5,2.07-.76l-2.75-7.91-2.27.82Z"/>
          <path class="cls-1" d="M192.99,556.32c2.33-1.7,4.65-3.4,7.59-5.54-4.13-.82-7.07,1.21-7.59,5.54Z"/>
          <path class="cls-1" d="M642.93,497.57l1.52,12.18c.52-.07,1.04-.14,1.56-.2-.57-4.05-1.14-8.1-1.71-12.15-.46.06-.92.12-1.38.18Z"/>
          <path class="cls-1" d="M348.15,439.27c-.37-.28-.74-.57-1.1-.85-3.09,3.62-6.18,7.24-9.27,10.86.32.27.65.55.97.82,3.13-3.61,6.27-7.22,9.4-10.83Z"/>
          <path class="cls-1" d="M331.85,335.09l-.31-.83c-5.13,1.91-10.26,3.82-15.39,5.74.04.41.07.81.11,1.22,5.2-2.04,10.39-4.08,15.59-6.12Z"/>
          <path class="cls-1" d="M492.41,475.02c1.29,3.7,2.59,7.39,3.88,11.09.51-.19,1.01-.38,1.52-.57-1.41-3.65-2.81-7.31-4.22-10.96-.4.15-.79.3-1.19.44Z"/>
          <path class="cls-1" d="M398.17,185.78c.79-.52.91-2.07,1.32-3.18-1.15-.37-2.3-.73-4.12-1.31-.16,1.62-.7,3.05-.24,3.56.66.72,2.44,1.34,3.04.94Z"/>
          <path class="cls-1" d="M462.22,620.89c-.92.75-1.34,2.12-2.39,4.01,1.83.24,3.2.76,3.49.4.81-.98,1.16-2.33,1.7-3.53-.96-.33-2.38-1.22-2.8-.88Z"/>
          <path class="cls-1" d="M392.53,654.5c.34.1.68.19,1.02.29,1.36-4.59,2.73-9.17,4.09-13.76-.38-.11-.75-.21-1.13-.32-1.33,4.59-2.66,9.19-3.98,13.78Z"/>
          <path class="cls-1" d="M249.62,625.78c-2.54,3.55-5.09,7.1-7.63,10.65.34.23.67.47,1.01.7,2.57-3.52,5.15-7.05,7.72-10.57-.37-.26-.73-.52-1.1-.78Z"/>
          <path class="cls-1" d="M498.59,480.71c.51.26,1.02.52,1.53.78,1.5-3.4,3-6.8,4.5-10.2-.3-.16-.6-.32-.91-.48-1.7,3.3-3.41,6.6-5.11,9.91Z"/>
          <path class="cls-1" d="M547.97,611.2c.29-.15.58-.29.87-.44-.56-2.12-1.12-4.25-1.68-6.37-.93,1.15-1.86,2.31-3.02,3.75,1.15.92,2.49,1.99,3.83,3.07Z"/>
          <path class="cls-1" d="M547.25,604.28s-.12-.02-.12-.02c.01.04.02.09.03.13.03-.04.06-.07.09-.11Z"/>
        </g>
      </g>
      <path id="plsh-1ntn-left_splash" data-name="plsh-1ntn-left splash" class="cls-1" d="M518.07,542.11c1.76,3.85,4.07,7.46,6.05,10.98-.94,1.41-2.06,2.45-2.37,3.68-.79,3.11-1.45,5.88-5.01,7.34-1.2.49-1.47,3.28-2.17,5.01.31.32.62.64.93.96-1.29-.23-2.58-.46-4.25-.75l3.33,5.27c-3.41-2.02-4.28-.63-4.65,1.75-.39,2.54-1.34,5.09-1.23,7.6.13,2.9.65,6,1.91,8.56,1.7,3.43.26,6.35-.99,8.96-2.53,5.29-8.63,7.65-14,6.49-3-5.98-1.19-13.44-7.27-18.51.25-2.4,3.02-6.38-1.61-7.47-2.3-.54-6.62-2.2-7.8,3.75-.78-2.04-1.2-3.14-1.48-3.87-2.32-.58-4.4-1.1-7.01-1.75-.62.69-1.7,2.63-3.34,3.48-1.44.74-4.59.94-5.07.17-.9-1.43-1-3.96-.35-5.61.6-1.53,2.44-2.85,4.04-3.67,4.35-2.23,5.01-3.54,3.98-8.37-.51-2.39-.56-4.88-.77-6.8,5.2-1.31,9.85-1.47,13.26-3.62,3.22-2.02,5.14-6.12,7.71-9.41-1,2.35-1.85,4.77-3.03,7.01-1.34,2.56-.75,4.35,1.73,5.55,4.78,2.31,5.94,7.1,7.61,11.38,1.41,3.62,1.33,3.99,2.27,3.2,1.4-2.94,2.8-5.88,4.18-8.8-4.14-2.5-3.17-6.63-2.86-10.12.83-9.3,2.76-11.15,12.11-13.58.85-.22,1.91-1.05,2.2-1.85l3.95,3.03Z"/>
      <g id="ntn-left_splash" data-name="ntn-left splash">
        <path class="cls-1" d="M692.25,205.47l132.26-25.68c.31,3.61-2.37,7.77,1.67,10.41,3.28,2.14,6.5.05,9.55-1.71-1.35.01-2.69.02-4.04.03-.11-.44-.22-.88-.33-1.32,1.23-.28,2.73-1.16,3.65-.75,2.99,1.33,5.77,3.13,8.9,4.89-5.6,2.09-11.11,4.14-16.62,6.19-.04.49-.07.98-.11,1.47,1.74.75,3.49,1.51,5.27,2.28-1.67,6.03-1.63,5.84-7.79,4.55-2.05-.43-4.39.19-6.55.6-5.22.98-10.46,1.9-15.59,3.27-4.47,1.19-8.77,2.99-13.16,4.46-4.27,1.43-8.57,2.76-12.84,4.19-1.62.54-3.18,1.26-5.14,2.05,2.86,2.44,5.41,3.24,9.06,2.75,11.06-1.49,22.25-2.04,33.32-3.49,23.19-3.04,46.34-6.42,69.5-9.66,2.46-.34,4.93-.65,7.4-.97.07.39.15.77.22,1.16-4.94.87-9.87,1.74-14.81,2.61.05.4.09.8.14,1.2,8.76-.97,17.61-1.45,26.27-3.01,13.7-2.46,27.19-6.1,40.91-8.35,7.58-1.24,15.45-.68,23.19-.93.07.6.13,1.19.2,1.79-4.61.74-9.27,1.28-13.83,2.27-9.57,2.09-19.4,3.55-28.54,6.87-10.2,3.71-20.66,4.63-31.18,5.88-2.88.34-5.83.22-8.67.75-12.63,2.35-25.24,4.85-37.85,7.3-5.86,1.13-11.91,1.7-17.55,3.5-10.74,3.43-21.29,7.49-31.84,11.49-1.12.42-2.06,2.05-2.51,3.32-.4,1.14,0,2.56.08,5.02,2.56,2.24,6.9,4.58,12.81,4.91-1.88-5.05-2.93-9.94-10.2-8.13.21-.48.42-.96.63-1.45,4.92-.58,9.83-1.15,14.75-1.73-5,2.8-5.6,4.81-2.52,9.14,1.98,2.78,4.56,1.48,6.91,1.03,8.08-1.57,16.1-3.52,24.21-4.89,8.23-1.39,16.55-2.27,24.92-2.87-20.85,2.13-39.73,13.77-61.26,12.63.27.8.63,1.84,1.08,3.16-9.08-4.07-16.2-.95-23.34,4.57,11.9,9.25,25.7,7.21,38.73,8.47-.04.34-.09.69-.13,1.03-5.73.38-11.47.73-17.2,1.14-5.09.37-10.17.95-15.27,1.16-4.77.19-9.56.12-14.34-.03-6.34-.21-12.18,1.01-17.09,5.29-.36.32-.65.72-1.81,2.05,9.21-1.44,17.36-2.71,25.5-3.99l.29,1.31c-3.56.78-7.09,2-10.69,2.22-5.01.31-9.53.9-13.28,4.87-2.02,2.14-5.04,3.33-8.11,5.27.56,2.24,1.76,5.68,5.71,6.5,3.76.77,7.66,1.11,11.51,1.14,3.87.02,7.75-.58,12.65-1-3.72,4.9-7.8,6.58-12.54,6.79-2.65.12-5.32-.24-7.97-.16-1.57.04-3.12.52-4.68.8.03.44.06.88.09,1.31,1.82.12,3.63.24,5.45.35.04.29.08.59.12.88-1.16.28-2.39.41-3.47.89-1.16.52-2.18,1.37-3.26,2.08,1.09,1.31,1.98,3.49,3.29,3.77,4.24.91,8.62,1.13,13.99,1.74-2.63,1.3-4.42,2.19-7.38,3.66,4.05.67,7.02,1.29,10.03,1.62,2.94.32,5.95.08,8.85.57,1.87.32,4.71.13,4.03,3.87-.14.76,2.33,2.26,3.81,3,6.41,3.21,12.84,6.38,19.37,9.32,4.29,1.94,8.77,3.47,13.16,5.18-.11.38-.21.75-.32,1.13-12.8-3.75-25.61-7.48-38.4-11.25-1.79-.53-3.5-1.33-5.3-1.75-6.46-1.5-10.82,1.71-11.61,8.39-.09.73-.39,1.43-.82,2.96l-43.16,54.08c-7.54-1.44-14.77-2.82-22-4.2-.41.57-.83,1.14-1.24,1.71,5.68,9.53,11.36,19.05,17.05,28.58-.33.28-.66.55-1,.83-1.02-.94-2.15-1.79-3.05-2.83-2.4-2.75-4.74-5.56-7.02-8.4-.46-.57-.49-1.46-.87-2.12-3.44-5.99-6.11-12.71-10.71-17.62-2.25-2.4-8.09-1.48-12.32-1.81-.15-.01-1.08,2.83-.67,4,1.26,3.59,2.99,7.02,4.05,11.66l-1.82-1.91c-.15.32-.3.65-.45.97.57,1.32,1.32,2.6,1.61,3.97.14.66-.61,1.5-.96,2.26-.61-.39-1.5-.63-1.78-1.19-1.19-2.37-2.5-4.76-3.21-7.29-.74-2.63-2.17-3.44-5-2.95-.76,7.97,6.42,10.63,10.7,15.16-.26.32-.51.63-.77.95-1.63-1-3.26-1.99-4.89-2.99-.89,2.73,1.32,8.74,4.35,10.48,2.95,1.69,2.48,4.59,1.96,6.54-.79,2.94-2.79.76-3.84-.29-2.61-2.61-4.88-5.58-7.53-8.14-2.21-2.13-4.7-4.01-7.25-5.74-.96-.65-2.43-.55-4.04-.86,1.49,3.96,2.67,7.11,3.86,10.26l-.83.35c-.58-1.14-1.16-2.27-1.75-3.41-1.24,4.78-3.03,9.27-.62,14.35,1.06,2.23.03,5.44-.03,8.21-.02.88.02,1.76.02,1.8,2.31-1.45,4.62-3.55,7.33-4.46,3.49-1.18,6.25.74,7.74,4,1.31,2.87,2.29,5.89,3.18,8.21-3.19,3.98-8.61,4.96-9.92,10.3-.23.94-.88,2.18-1.67,2.52-3.99,1.75-3.56,4.4-2.46,7.88,1.7,5.35,2.81,10.9,3.84,16.45-3.91-7.19-3.44-16.11-8.27-22.89-.38.13-.75.27-1.13.4.69,2.69,1.38,5.39,2.07,8.08-.32.12-.63.24-.95.36-.64-1.54-1.28-3.07-1.87-4.5-.83.82-1.59,1.57-2.35,2.33-.65-1.13-1.6-2.18-1.91-3.4-.78-3.13-1.3-6.33-1.86-9.51-.49-2.74-1.01-5.49-1.31-8.25-.33-2.97-1.82-3.52-4.37-2.57,2.08,7.39,4.13,14.69,6.19,21.99l-1.45.7c-1.31-1.15-2.61-2.3-4.22-3.71-.66,1.2-1.19,2.18-2.02,3.71-1.87-1.52-3.68-2.99-5.85-4.75-.29,2.01-.55,3.78-.76,5.24-1.8-3.45-3.54-7.11-5.62-10.57-.54-.89-2.13-1.16-3.23-1.71-.56,1.33-1.99,3.24-1.55,3.89,3.64,5.4,1.53,10.05-1.19,14.88-.62,1.1-.33,2.82-.14,4.21.18,1.37,1.53,3.2,1.03,3.94-1.64,2.45-3.74,4.67-5.99,6.6-.72.62-2.44.09-3.47.08,2.24-2.88,4.19-5.38,6.15-7.89-.04-4.09-.08-8.17-.12-12.26-.41-.09-.82-.19-1.23-.28-.63.99-1.97,2.15-1.77,2.94.8,3.26,2.06,6.41,3.16,9.6-4.98,3.4-9.27,7.15-9.32,13.97-.02,3.19-8.35,6.61-11.61,4.69-.78,2-1.54,3.96-2.31,5.91-.75,1.9-1.53,3.79-2.09,5.2.25-6.24.51-12.79.78-19.6-1.56-.21-2.77-.37-3.42-.45,2.02-2.07,4.24-4.37,6.47-6.66l-1.19-1.25c-9.04,2.13-13.73,9.95-19.78,16.35-.35-2.19-.64-3.97-.94-5.76-.37-.01-.74-.02-1.11-.03-.56.8-1.12,1.59-2.19,3.12-.88-3.37-1.62-6.17-2.35-8.97l-1.05.03c-.1,2.91-.3,5.82-.29,8.72,0,4.16-2,5.93-5.95,5.07.03,1.4.27,2.56.72,3.49l-6.89,1.66c-.38-.46-.86-.9-1.48-1.34-1.78-1.25-2.29-4.3-3.53-6.85-1.83-1.93-4.04-4.26-6.25-6.58-.53.08-1.06.16-1.58.24-3.44,14.4-6.87,28.79-10.42,43.64,4.66-.49,5.99,2.03,6.49,5.22.62,3.96-1.11,7.72-3.89,8.88-2.96,1.23-7.05-2.39-6.4-5.96.78-4.25,2.02-8.42,2.97-12.65,1.69-7.51,3.76-14.97,4.81-22.57.6-4.33,1.34-9.25.73-13.11-.73-4.55,1.11-7.95,1.49-11.87.15-1.58.95-3.59-1.93-2.91-1.62-4.93-3.3-10.06-4.99-15.19-.44,0-.88-.02-1.32-.02-2.77,6.51-5.85,12.91-8.26,19.54-4.68,12.88-9.08,25.87-13.34,38.89-.58,1.76-.2,4.22.6,5.97l-3.95-3.03c1.45-3.96,2.7-7.99,3.97-12.01,3.29-10.4,6.63-20.8,9.82-31.23,2.53-8.27,5.03-16.56,7.22-24.93,1.38-5.27-.39-8.15-5.21-10.4-2.8,5.97-5.59,11.95-8.39,17.92-.53-.21-1.06-.43-1.58-.64l53.88-313.41,118.73,41.57Z"/>
      </g>
      <path id="ntn-left_splash-2" data-name="ntn-left splash" class="cls-1" d="M569.69,515.82c1.04,2.15,3.18,3.1,6.35,3.04.8-.02,2.03.72,2.38,1.44,1.93,3.97,3.44,7.88,1.52,12.57-.84,2.06-.47,5.08.37,7.28,2.1,5.49,3.99,11.23,9.15,14.92.28.2-.19,1.47-.49,3.32-5.17-6.89-9.72-12.96-14.24-18.99-4.65,3.11-10.57.86-11.02-3.83-.37-3.89.05-7.87.31-11.8.16-2.38.3-4.45-1.22-6.29l6.89-1.66Z"/>
      <path id="blb-lef-ntn-left_splash" data-name="blb-lef-ntn-left splash" class="cls-1" d="M571.94,169.26c2.98-6.8,3.81-8.84,5.19-11.14,7.19-.64,24.15-11.76,18.88-19.08,1.29-.7,2.6-1.42,3.91-2.13-1.18-1.47-2.19-3.92-3.59-4.16-1.64-.28-3.91,1-5.35,2.26-.92.81-.83,2.78-1.19,4.23,1,.14,2,.28,3.65.51.44,1.7.04,3.11-2.92,3.87-2.09.53-3.87,2.29-5.94,3.59-.53-1.08-1.38-2.84-2.62-5.39-.62,1.95-.97,3.02-1.63,5.09-3.2-1.54-7.09-2.29-8.72-4.62-1.03-1.47.44-6.36,2.3-7.87,4.59-3.74,7.67,1.36,11.57,3.45,1.03-2.15,1.99-4.33,3.09-6.42.55-1.03,1.21-2.1,2.07-2.86,2.3-2.02,1.96-3.78-.16-5.64-4.56-3.99-6.05-8.51-2.52-14.04,2.2-3.45,3.91-7.22,6.3-10.52.9-1.23,3.09-1.53,4.69-2.25.66,1.65,1.41,3.27,1.94,4.95.22.71,0,1.57-.01,1.97-3.28,1.26-6.33,2.43-10.22,3.93l2.71,4.29c1.16-.9,2.31-1.8,3.47-2.7,1.42-1.09,2.84-2.17,4.96-3.79-1.36,4.45-2.34,7.67-3.33,10.89,3.48-6.19,10.06-10.46,9.95-18.73-.1-7.11,1.36-14.23,2.05-21.35.14-1.44-.09-2.92-.17-4.67,4.85,1.45,4.34,4.05,4.53,6.53.11,1.43,1.11,2.78,1.71,4.17,1.12-1.29,2.65-2.4,3.28-3.89,2.03-4.78,3.52-9.79,5.62-14.54,1.82-4.11,4.04-8.06,6.35-11.93,1.25-2.09,3.07-3.84,4.64-5.75.47.26.94.52,1.41.78-.15,1.19-.06,2.49-.5,3.56-3.42,8.25-7.26,16.33-10.27,24.72-1.27,3.54-.87,7.68-1.29,12.26l7.73-4.88c.18.13.36.26.54.4-2.1,2.43-4.22,4.86-6.31,7.3-2.31,2.7-4.94,5.2-6.82,8.18-1.79,2.82-2.78,6.15-4.59,10.32,4.39-1.35,7.55-2.32,10.9-3.35.93.71,2.28,1.75,4.37,3.35,0-.19,0,.81.02,2.31l4.11-2.59c.43,3.67.74,7.55,7,5.99-1.45,1.99-2.32,3.18-3.42,4.7,3.37,1.1,5.33,2.55,2.27,6.25-1.63,1.97-2.22,4.9-2.94,7.49-.36,1.3.02,2.82.05,3.69-3.72,1.86-7.21,3.61-10.81,5.41-1.56-.57-3.81-1.4-6.05-2.23-.4.23-.79.46-1.19.69,1.04,2.97,1.98,5.98,3.21,8.88.18.41,2.07.68,2.57.28,6.06-4.94,12.01-10.02,18.34-15.35-1.28.04-2.16.06-3.04.09-.11-.3-.21-.6-.32-.91,1.77-.84,3.82-1.36,5.26-2.59,4.72-4.02,9.5-8.04,13.68-12.59,1.98-2.15-.5-4.85-3-4.74-1.49-3.6-2.83-6.84-4.15-10.05.7-3.2,1.52-6.92,2.34-10.63-.4-.13-.8-.27-1.21-.4,2.14-2.19,9.75.01,5.03-7.89,2.08,1.35,3.07,1.99,3.42,2.22,4.72-3.91,9.07-7.51,14.01-11.6-2.59,3.94-.41,5.36,2.14,7.44,1.84,1.49,2.3,4.67,3.59,7.58.36.02,1.5.07,3.46.17-1.21,1.37-1.99,2.26-2.44,2.77.93,1.87,1.78,3.59,2.63,5.31-.24.13-.49.27-.73.4,1.02.46,2.03.91,2.68,1.2-1.4,2.96-2.67,5.63-4.09,8.61.99,1.17,2.16,2.54,3.33,3.92-.13.42-.25.85-.38,1.27-3.84-4.19-5.99-1.72-8.28,1.05-.78.94-2.24,1.33-4.04,2.33-.06.5-.21,1.91-.29,2.66-3.42-1.01-6.88-2.02-10.33-3.04-8.12,8.23-16.4,16.48-24.5,24.91-5.68,5.91-11.14,12.02-16.61,18.12-2.77,3.08-2.51,9.89.82,13.7,1.84-3.57,3.57-6.91,5.29-10.25.45.22.91.44,1.36.66-1.12,2.71-2.24,5.42-3.36,8.13.29.18.59.36.88.54.8-1.04,2.07-1.98,2.33-3.14,1.28-5.82,4.69-8.04,10.68-6.44-4.18,7.93-5.35,16.68-5.83,25.56.38.19.77.38,1.15.57,1.02-1.07,2.12-2.07,3.03-3.22.92-1.17,1.65-2.5,3.12-3.35-.32.68-.79,1.33-.94,2.05-.3,1.36-.43,2.75-.63,4.13,1.55-.29,3.52-.08,4.57-.97,4.72-3.96,9.19-8.23,13.74-12.4,1.01-.92,1.97-1.9,3.58-2.37-1.58,5.65-6.21,9.3-9.61,13.72.29.32.59.64.88.96,3.45-2.18,7.07-4.15,10.33-6.59,4.58-3.42,8.88-7.2,13.33-10.79,1.98-1.6,8.98-1.09,11.11.74,2.4,2.07,2.62,6.44.47,9.74-.91,1.4-1.85,2.77-2.86,4.27-1.27-.13-2.88-4.05-4.34.42l-1.59-2.52c-1.34,1.11-2.54,2.09-3.73,3.08l-.61-.54c1-1.13,2-2.27,2.38-2.69-.94-3.36-1.74-6.22-2.5-8.96q-3.53,6.36-6.35,6.31-.68,8.69,4.95,9.57c-.49,3.39-.97,6.77-1.39,9.64,2.06.86,3.75,1.86,5.54,2.13.47.07,1.27-2.14,2.35-4.04,1.42.25,3.76.66,6.67,1.17-1.83,1.76,11.59,1.22,9.31,2.77,3.02,4.39,2.4,9.11-9.89,12.13l-115.26-43.75Z"/>
      <path id="blb-ntn-left_splash" data-name="blb-ntn-left splash" class="cls-1" d="M766.1,346.88c2.18-.16,4.54.34,6.06-.57,7.81-4.61,15.3-2.91,23.09.04,5.18,1.96,8.45,5.43,11.23,9.96.81,1.32,3.11,1.72,4.73,2.54.27-.29.54-.58.81-.87.51,1.59,1.02,3.18,1.61,5.01-2.83-1.12-5.29-2.11-8.19-3.26.31,3.72.37,6.74.94,9.66.16.78,1.88,1.7,2.92,1.75,1.33.06,2.71-.7,5.12-1.42-1.39,3.16-2.45,5.57-3.88,8.82-1.67-2.17-2.85-3.69-4.13-5.34-4.99,4.21-1.22,7.77.71,11.93-2.99-1.18-5.45-2.16-8.12-3.21-.14,4.21-.24,7.58-.37,11.66-.88-.91-1.58-1.37-1.9-2.02-.47-.94-.46-2.16-1.04-2.99-.97-1.38-2.24-2.54-3.38-3.79-.62,1.27-1.23,2.55-1.95,4.03-.35-.14-1.07-.43-1.98-.79.34,1.91.62,3.51.95,5.36-4.49-.08-.78-7.62-6.96-5.7,1.56,4.74,3.13,9.54,4.79,14.57-.91.04-2.01.1-3.34.16,4.7,7.14-.05,11.28-3.78,15.75-.38-.1-.76-.21-1.13-.31.13,1.02.26,2.04.45,3.52-1.06-.7-1.84-1.21-3.1-2.04,0,2.54,0,4.69,0,6.84-.19.04-.39.08-.58.12-.73-1.51-1.46-3.02-2.26-4.68-3.33.17-1.78,2.28-1.56,3.87.22,1.6.37,3.21-.39,4.99-.95-2.17-1.91-4.34-3.04-6.91-2.96,2.39-6.26,3.8-3.76,8.07.22.37-.91,1.88-1.71,2.41-.87.58-2.09.62-2.79.81-.91-2.31-1.84-4.67-3.07-7.79-1.28,2.86-2.17,4.83-3.55,7.92-1.27-4.31-2.26-7.49-3.14-10.69-.83-3.02-5.31-6.17-8.32-5.42-2.15.54-4.45,1.3-3.99,4.49.17,1.18-.24,2.45-.51,4.7-4.66-5.94-8.04-11.35-8.28-18.12-.16-4.84-3.4-6.92-7.69-4.43-3.05,1.77-5.82,4.01-9.19,5.51,1.52-4.98,7.6-5.19,10.5-10.05l43.16-54.08Z"/>
      <path id="blb-left-dwn-ntn-left_splash" data-name="blb-left-dwn-ntn-left splash" class="cls-1" d="M693.01,205.69c4.4-2.69,8.5-5.86,12.72-8.82-.15-.32-.29-.64-.44-.97-2.41.13-4.83.26-7.82.43.06.21-.15-.53-.35-1.25-1.35-.1-2.7-.2-3.9-.29-.08-1.96-.05-3.56-.22-5.14-.81-7.62,2.53-12.87,10.19-12.47,1.43.08,2.82.92,4.63,1.55,2.61-2.47,2.67-5.52.57-9.07,1.23.08,2.24.15,4.11.27-1.1-2.86-2.04-5.29-2.9-7.53,5.53,1.16,6.27.29,5.6-7.49.97.71,1.75,1.28,2.39,1.74,1.57-1.47,2.97-2.78,4.4-4.12-1.02-2.22,2.94-7.03,7.61-9.11q-1.09-1.99-6.82-3.25c2.41-1.17,4.83-2.34,7.79-3.77-1.32-1.05-2.35-1.87-3.38-2.69,4,.88,7.47-.32,9.29-3.82,1.39-2.68,1.62-5.96,2.55-9.67,2.02-.72,5.04,3.79,8.17,1.63.07-.54.15-1.09.22-1.63-2.69-.79-5.37-2.17-8.07-2.23-3.41-.06-4.81-1.98-6.55-4.56,6.25,2.06,12.09,3.99,18.15,5.99,1.84-2.75-.04-4.57-2.33-5.28-3.59-1.11-4.66-4.14-5.25-6.88-.35-1.62,1.38-3.98,2.71-5.57.97-1.16,2.8-1.59,4.1-2.27-1.82-2.2-3.26-3.95-4.7-5.7.24-.26.47-.51.71-.77,1.98,1.07,3.96,2.14,6.15,3.33,1.36-5.02.89-9.11-2.97-12.88-7.58-7.38-14.84-15.1-21.75-23.22,1.78,1.42,3.68,2.72,5.31,4.3,4.79,4.6,9.02,9.94,14.33,13.81,5.05,3.67,11.18,5.85,16.86,8.64.55.27,1.69.45,1.89.18,3.13-4.23,6.58-.95,9.9-.52,1.25.16,2.52.21,4.97.4-2.4-3.81-4.25-6.74-6.1-9.68.34-.23.68-.46,1.03-.7.98,1.4,1.93,2.82,2.93,4.21,1.32,1.82,2.41,3.97,4.12,5.32,1.3,1.02,3.63,1.69,5.08,1.22,1.03-.33,1.67-2.77,1.94-4.36.35-2.02.16-4.14.21-6.22.4-.03.81-.05,1.21-.08.28,3.25.56,6.51.85,9.9,4.54.54,8.22-4.95,13.25-1.62.74-.62,1.72-1.45,2.73-2.29,2.15,4.02,3.07,3.88,9.81-1.29,1.37,4.12,1.65,4.25,5.22,1.73,3.26-2.31,6.39-4.81,9.71-7.03,1.34-.9,3.07-1.2,4.52-1.97.93-.49,1.92-1.19,2.43-2.05,1.66-2.81,2.13-7.13,7.22-4.93.28.12,1.02-.35,1.27-.73,3.2-4.78,7.86-8.86,7.28-15.47-.12-1.4.5-2.87,1.36-4.2,1.63,6.52,1.4,12.73-3.58,18.22.34.21.67.43,1.01.64,1.91-.86,3.81-1.72,6.16-2.77-.31,1.2-.49,1.88-.88,3.36,3.08-3.22,5.67-5.93,8.27-8.64.13.13.26.26.39.38-2.2,5.11-4.41,10.22-6.61,15.32.38.25.75.49,1.13.74.72-.23,1.45-.45,1.97-.61-.32,1.97-.65,4.01-1.08,6.65,2.15-.46,3.35-.71,4.83-1.03.08,1.23.14,2.22.22,3.53,4.89-1.3-.09-5.71,2.65-7.61.87.82,1.76,1.65,2.66,2.49.36-.14.72-.27,1.09-.41-.12-2.89-.24-5.78-.34-8.02,2.94,3.69,5.34.3,7.79-2.36,2.99-3.24,5.91-4.05,10.46-3.26,3.81.66,7.68.9,11.66,1.35-1.28,2.7.46,4.05,3.43,4.57-.57,1.14-1,2-1.59,3.2,2.8.25,6.26-.1,3.45,4.16-.27.41.91,1.78,1.08,2.09-.68,2.03-1.18,3.54-1.7,5.03-1.36,3.9-2.64,7.82-4.16,11.66-.33.83-1.5,1.33-2.59,2.25-.04-.07.26.54.89,1.84-1.62-.95-2.59-1.53-3.56-2.1-4.03,6.34-4.5,6.47-13.87,3.77-.83,2.01-1.67,4.03-2.51,6.06-.39-.04-.78-.08-1.16-.12-.03-1.48-.07-2.96-.12-5.18-1.47.69-2.77,1.3-4.81,2.25,3.91,1.52,3.73,2.86,1.23,4.42-2.53,1.58-1.97,2.48.52,3.7,2.38,1.17,4.4,3.1,6.57,4.69-.17.39-.34.78-.52,1.17-1.62-.6-3.23-1.19-5.18-1.91-3.2,2.62,1.19,4.07,1.65,6.65-1.38-.44-2.48-.79-4.31-1.38.99,2.1,1.7,3.59,2.6,5.49-4.92-1.38-6.79,1.73-7.99,5.28-1.78,5.26-3.22,10.63-4.84,15.94-1.15,3.77.82,5.11,4.35,5.28-2.06,3.68-1.36,6.96.69,10.11.8,1.23,1.84,2.34,2.41,3.66,2.92,6.76,7.34,10.67,15.23,8.48.3-.08.72.23,1.11.37-2.9,3.07-5.77,6.1-9.15,9.68,2.44,1.28,3.78,1.97,5.11,2.67-4.69,3.05-5.63,2.7-6.44-2.38-.08-.52-.13-1.33-.44-1.49-3.97-1.93-3.19-6.65-5.59-9.4-1.52-1.74-3.58-3.01-5.42-4.47-.47-.37-1.48-.59-1.49-.92-.29-5.42-3.48-3.38-6.13-2.38-7.34,2.77-14.64,5.65-21.97,8.44-.93.35-1.96.43-2.95.64-.12-.35-.24-.71-.36-1.06,8.84-3.58,17.68-7.17,26.72-10.83-4.81-5.89-5.72-6.13-11.77-3.61-5.53,2.3-6.34,1.93-10.36-2.7-1.15-1.33-3.34-1.75-5.06-2.58-.41,1.23-.51,2.73-1.3,3.64-1.29,1.48.03,4.99-3.65,4.7-.37-.03-1.35,1.65-1.24,2.41.78,5.32,1.82,10.61,2.65,15.93.16,1.06-.25,2.21-.4,3.32-1.03-.46-2.34-.68-3.03-1.45-1.18-1.32-1.98-2.99-3.5-4.31l-132.26,25.68Z"/>
      <g id="over-left-splash">
        <path class="cls-1" d="M846.03,146.05c-2.01-1.87-4.02-3.74-6.04-5.62.34,4.36,2.98,6.25,6.07,5.51,2.05,2.54.41,3.77-2.62,4.78,3.66,1.39,8.31-.53,8.53,5.39.98-1.5,1.52-2.32,2.04-3.11-2.8-2.44-5.39-4.69-7.98-6.95Z"/>
        <path class="cls-1" d="M567.21,484.24c-.44-.03-.87-.06-1.31-.09-.03-1.86-.31-3.76-.04-5.57,2.11-13.91,3.54-27.94,8.69-41.26,2.61-6.74,1.37-8.71-4.36-9.68-.55,1.71-1.24,3.44-1.66,5.23-3.11,13.34-6.31,26.67-9.14,40.07-.63,2.99-.51,6.44.34,9.36,2.02,7,4.64,13.82,7.1,20.69.85,2.38,1.92,4.68,2.89,7.02.45-.02.91-.03,1.36-.05.92-3.79,1.95-7.57,2.75-11.39.91-4.37,1.45-8.83,2.48-13.17,1.25-5.29,2.9-10.48,4.21-15.76.27-1.07-.21-2.33-.36-3.64,3.42-2.43,2.79-6.62,3.87-10.56-1.45.33-2.34.57-3.25.74-5.2.99-6.66-.37-5.98-5.54.26-1.99.51-3.99.77-5.98-.34-.04-.67-.09-1.01-.13-2.45,13.23-4.91,26.46-7.36,39.7Z"/>
        <path class="cls-1" d="M745.71,380.9c-.13-.34-.25-.67-.38-1.01-4.09-1.22-8.18-2.45-12.26-3.67-.19.49-.38.97-.57,1.46,1.98.86,3.95,1.73,5.88,2.57.3,1.71.59,3.4.94,5.45-4.42-2.62-8.55-5.07-12.67-7.52-.16.3-.32.6-.47.9.86.75,1.73,1.5,2.59,2.25-.13.3-.26.6-.39.89-5.17-1.45-11.07-1.81-15.29-4.65-4.21-2.84-7.76-2.73-12.45-1.14,2.08,1.36,4.16,2.71,6.49,4.23-.19,1-.41,2.24-.74,3.97-4.1-4.19-7.84-8.01-11.57-11.81-5.09,4.77-5.2,5.47-2.23,11.12.36.68.74,1.52.66,2.23-.46,4.08,2.02,5.85,5.36,6.71,6.81,1.77,13.64,3.5,20.52,4.96,5.18,1.1,9.61-.06,12.73-4.98,1.04-1.63,3.3-3.63,4.92-3.55,6.64.31,5.09-6.5,8.93-8.4Z"/>
        <path class="cls-1" d="M795.11,193.59c-.22-.39-.44-.79-.66-1.18-5.51.29-11.09,1.27-16.52.71-7.14-.74-13.62,2.09-20.5,2.54-2,.13-4.05,1.29-5.83,2.39-2.48,1.54-5.01,3.2-6.93,5.33-1.01,1.12-1.58,4.4-.95,4.89,1.42,1.1,3.93,1.82,5.62,1.35,7.35-2.05,14.54-4.68,21.83-6.92,7.08-2.18,13.18-7.4,21.21-6.74.83.07,1.81-1.54,2.71-2.37Z"/>
        <path class="cls-1" d="M763.76,176.62c-1.35,1.22-3.36,2.19-3.41,3.25-.07,1.7.66,4.08,1.92,5.08,5.75,4.57,12.65,4.62,19.53,3.89,1.25-.13,3.08-1.38,3.32-2.42.22-.98-1.02-2.92-2.1-3.46-3.64-1.83-5.16-4.35-4.08-8.37.26-.97.16-2.04.19-2.56-1.63-.3-2.96-.37-4.16-.8-1.49-.54-2.86-1.39-4.29-2.11-.49,1.48-.98,2.95-1.49,4.48-2.46-.03-5.81,3.97-7.28-2.47-.24.47-.49.94-.73,1.4l2.57,4.08Z"/>
        <path class="cls-1" d="M551.76,437.75c-2.41,6.86-4.8,13.18-6.83,19.62-1.21,3.85.12,7.13,3.55,9.86,1.01-2.12,1.88-3.93,2.74-5.73.17.08.34.15.51.23-.62,2.3-1.25,4.59-1.87,6.89,6.84-8.76,7.95-25.08,1.9-30.87Z"/>
        <path class="cls-1" d="M743.63,369.55c1.13,3.19,2.72,5.17,6.32,4.31,1.4-.33,3.15.38,4.63.92,3.91,1.43,7.75,3.02,12.83,5.02-1.6-5.02-2.82-8.82-3.91-12.22-2.77-1.11-5.4-2.16-8.33-3.33-2.44,1.23-5.54,2.79-8.8,4.43.03.2.15.9.32,1.95-1.25-.44-2.15-.76-3.06-1.09Z"/>
        <path class="cls-1" d="M490.07,452.14l-1.07-.03c-.23-.44-.4-.93-.71-1.3-.32-.39-.78-.67-1.23-1.05-4.2,6.01-6.99,11.88-2.53,20.03,2-5.15,3.63-9.32,5.5-14.14,3.83-1.76,8.93-11.44,7.3-15.17-.11-.25-.57-.33-1.2-.67.36,1.27.62,2.19,1.21,4.23-1.71-1.85-2.61-2.83-3.34-3.63.53-1.57.94-2.8,1.35-4.03-.35-.1-.7-.21-1.05-.31-2.74,4.91-7.01,9.32-4.22,16.07Z"/>
        <path class="cls-1" d="M582.67,475.21c.45.12.9.25,1.35.37.91-2.17,1.83-4.35,3.14-7.47.67,2.62.8,4.27,1.51,5.6.59,1.09,1.88,1.8,2.86,2.68.58-.93,1.6-1.84,1.66-2.81.42-7.15.75-14.3.84-21.46.02-1.21-1.26-2.43-1.94-3.65-.98,1.08-2.46,2.01-2.86,3.28-1.5,4.78-2.63,9.68-3.95,14.52-.82,2.99-1.74,5.96-2.61,8.94Z"/>
        <path class="cls-1" d="M542.41,431.57c-8.81,8.18-9.47,14.73-2.43,22.89,2.88-7.38,6.25-14.44,2.43-22.89Z"/>
        <path class="cls-1" d="M779.51,211.38c5.97,1.31,40.41-7.95,42.01-11.48-14.26,1.36-27.49,6.57-42.01,11.48Z"/>
        <path class="cls-1" d="M478.33,457.12c3.76-4.07,6.85-8.48,5.88-14.3-.56-3.32-2.04-6.42-5.99-7.67.95,3.64,1.84,6.92,2.64,10.22.14.57.07,1.61-.28,1.82-4.27,2.53-1.54,6.58-2.25,9.92Z"/>
        <path class="cls-1" d="M411.4,448.32c6.65-5.62,7.03-13.48,7.69-21.25-5.72,5.91-6.5,13.64-7.69,21.25Z"/>
        <path class="cls-1" d="M762.51,333.22c-5.2-.81-10.07-1.65-14.96-2.2-.43-.05-1.7,1.91-1.5,2.63.69,2.43,2.19,3.79,5.11,2.71,1.17-.43,2.69-.14,4.01.07,2.68.42,5.51,1.56,7.35-3.21Z"/>
        <path class="cls-1" d="M371.31,368.19c-.28-.46-.55-.92-.83-1.38-4.39,3.1-8.79,6.19-13.18,9.29,6.89,1.99,10.31-2.66,14.29-6.16-.84-.02-1.83-.05-3.61-.1,1.58-.79,2.46-1.22,3.33-1.65Z"/>
        <path class="cls-1" d="M572.86,181.6c2.92-4.81,5.55-9.15,8.4-13.84-8.84,4.11-11.33,7.95-8.4,13.84Z"/>
        <path class="cls-1" d="M492.18,465.03c6.62-3.15,9.43-10.39,6.44-15.1-2.09,4.9-4.1,9.61-6.44,15.1Z"/>
        <path class="cls-1" d="M486.49,430.08c-3.57,4.26.28,7.89-.28,12.82,5.62-7.92,5.58-9.62.28-12.82Z"/>
        <path class="cls-1" d="M600.22,469.76c.22,5.21-3.73,9.29-.1,14.22.84-2.35,1.17-4.57,2.32-6.22,2.08-2.98,1.36-5.09-2.22-7.99Z"/>
        <path class="cls-1" d="M799.87,198.26c5.23,1.55,9.39-1.14,13.64-3.48-5.2-1.58-9.28,1.46-13.64,3.48Z"/>
        <path class="cls-1" d="M420.19,436.42c6.23-4.89,8.28-9.19,6.56-13.64-2.41,5.01-4.48,9.33-6.56,13.64Z"/>
        <path class="cls-1" d="M752.8,415.22c-.85,3.35.2,5.23,2.7,7.02,1.72,1.24,2.69,3.53,4,5.35.28-.19.55-.38.83-.57-2.08-4.04-1.87-9.5-7.52-11.8Z"/>
        <path class="cls-1" d="M449.79,379.08c-.2-.52-.4-1.04-.59-1.56-1.43-.05-2.85-.11-4.9-.18-.2,1.71-.56,3.7-.57,5.7,0,.36,1.9,1.21,2.07,1.03,1.44-1.56,2.69-3.3,4-4.98Z"/>
        <path class="cls-1" d="M607.88,482.83c-1.28.09-2.57.18-4.1.3,1.71,1.58,3.79,2.64,4.3,4.21.48,1.45-.72,3.46-1.27,5.59,1.44-.09,2.92-.17,4.93-.29-1.41-3.59-2.61-6.63-3.86-9.8Z"/>
        <path class="cls-1" d="M352.91,429.4c2.6-2.05,5.21-4.1,8.51-6.7-6.67.02-8.35,1.22-8.51,6.7Z"/>
        <path class="cls-1" d="M385.01,237c-.2-.95-.09-2.46-.64-2.75-2.91-1.54.3,3.08.64,2.75Z"/>
        <path class="cls-1" d="M787.75,187.79c3-.03,6-.06,8.99-.1.18-.43.35-.85.53-1.28-1.57-1.32-3.15-2.65-4.72-3.97,1.32,5.43-3.17,3.31-4.8,5.34Z"/>
        <path class="cls-1" d="M656.41,452.99c4.18-1.24,4.83-5.28,1.98-9.76-.74,3.66-1.28,6.3-1.98,9.76Z"/>
        <path class="cls-1" d="M604.81,272.64c.14.39.29.78.43,1.17,2.01-.43,4.03-.86,6.63-1.42-1.7-1.62-3.02-2.87-4.58-4.36-.93,1.72-1.71,3.16-2.48,4.6Z"/>
        <path class="cls-1" d="M807.99,191.65c.12-.69.24-1.39.36-2.08-1.87-.49-3.74-.97-5.6-1.46-.03,1.05-.24,2.97-.07,3,1.73.36,3.53.4,5.31.53Z"/>
        <path class="cls-1" d="M510.72,454.69c.68-.16,1.36-.32,2.04-.48-.57-2.77-1.14-5.54-1.71-8.31-.6.11-1.21.23-1.81.34.5,2.82.99,5.63,1.49,8.45Z"/>
        <path class="cls-1" d="M438.77,196.68c-1.41-.76-4.07-1.34-4.37-2.51-.74-2.92-2.16-2.2-4.03-1.75,4.39,5.82,5.51,6.32,8.39,4.26Z"/>
        <path class="cls-1" d="M749.7,102.83c-1.34-.18-2.26-.3-3.17-.43-.16.41-.32.82-.48,1.23,1.59.74,3.19,1.48,4.78,2.22.36-.26.72-.53,1.07-.79-.69-1.59-1.39-3.19-2.11-4.76-.01-.02-.44.14-.96.32.26.67.52,1.33.86,2.22Z"/>
        <path class="cls-1" d="M767.14,188.67c-2.79-1.15-4.83-1.98-7.65-3.14,2.69,4.75,3.16,4.95,7.65,3.14Z"/>
        <path class="cls-1" d="M840.22,310.87c-1.47,3.99-1.33,4.18,5.9,8.64-2.05-.05-4.09-.1-6.8-.17,1.08,2.77,2.01,5.16,3.3,8.47-1.84-1.1-3.09-1.85-4.4-2.64-.26,5.12,2.7,8.47,6.82,11.18-.38.38-.76.76-1.15,1.13-1.82-1.55-4.14-2.78-5.36-4.71-3.07-4.88-7.48-4.46-12.34-4.13.29,1.49.51,2.69.74,3.89-.2.09-.39.18-.59.28-.85-1.06-1.7-2.12-2.9-3.61-.89,1.77-1.6,3.2-1.9,3.79-5.23-1.07-10.01-2.05-15.09-3.09.43-4.99-3.16-8.29-6.67-10.6-4.98-3.29-5.53-7.12-4.02-12.1.22-.72.42-1.44.77-2.6-6.15,2.45-12.04,4.41-18.81,4.21.52-.77.65-1.15.8-1.16,10.1-.57,18.03-6.75,26.87-10.53,9.54-4.09,19.01-5.37,28.87-1.45.94.37,2.03.44,3.05.51.87.07,1.74-.06,3.48-.14-1.14,1.15-1.67,2.16-2.3,2.23-4.05.48-3.65,2.35-2.01,5.13.8,1.36.76,3.2,1.43,4.67.47,1.05,1.49,1.85,2.29,2.79Z"/>
        <path class="cls-1" d="M737.9,7.19c1.71-1.31,3.17-2.16,4.28-3.34,3.39-3.64,7.22-5.44,14.09-2.05,1.03.51,2.11.92,2.73,1.42,3.72,4.76,2.2,10.17,1.87,15.36-4.57,3.02-9.84,5.67-15.64,2.92-6.22-2.95-6.17-9.6-7.33-14.31Z"/>
        <path class="cls-1" d="M723.46,119.55c-.29.7-.77,1.87-.81,1.94-1.88.55-3.25.55-3.98,1.23-2.06,1.93-8.91,3.43-11.25,2.17-3.65-1.97-5.93-6.28-5.48-9.85.2-1.54-.1-3.14-.2-5.22,5.09-1.34,10.84-2.86,16.05-4.23,3.27,4.38,2.11,9.76,5.67,13.96Z"/>
        <path class="cls-1" d="M535.13,125.28c.22-1.26-.04-4.23,1.23-6.21,2.15-3.33,5.86-4.51,9.84-3.44,2.28.62,4.47,1.62,6.65,2.57,3.85,1.66,5.54,5,4.66,9.02-.84,3.86-2.82,4.9-7.65,5.13-5.58.27-10.46-.59-14.73-7.07Z"/>
        <path class="cls-1" d="M996.92,151.95c-3.19.96-6.33,2.12-9.57,2.86-15.62,3.55-31.26,6.98-46.9,10.46-9.96,2.22-19.94,4.36-29.86,6.74-2.15.52-3.99,2.21-6.13,2.84-1.43.42-3.14-.08-4.75-.78,31.48-11.61,64.51-16.03,96.76-23.79.15.56.3,1.11.45,1.67Z"/>
        <path class="cls-1" d="M676.24,135.94c-.27,2.77-.52,5.34-.77,7.91.48.34.95.67,1.43,1.01-3.36,1.43-6.61,3.22-10.1,4.19-3.16.88-6.12-.53-7.76-3.4-1.71-2.97-.8-5.8,1.34-8.42,1.16-1.42,1.72-3.35,2.94-4.71.72-.81,2.46-1.61,3.27-1.28,3.5,1.43,6.82,3.28,9.65,4.7Z"/>
        <path class="cls-1" d="M672.08,21.11c1.03-.14,1.77-.24,2.5-.34.28.25.56.49.84.74-1.66,2.12-2.94,4.89-5.09,6.16-1.81,1.06-4.69.66-7.03.39-3.85-.44-6.39-4.33-5.97-8.57.44-4.5,2.4-6.25,7.04-6.28,4.9-.04,7.15,2.17,7.73,7.9Z"/>
        <path class="cls-1" d="M779.59,469.89c1.07,2.28,2.13,4.56,3.57,7.65-2.12-.35-3.17-.52-4.38-.72-.19,1.28-.36,2.45-.53,3.61-.43,2.88-2.07,4.49-5,4.76-3.4.31-6.8-.75-7.35-4.03-.57-3.41.13-7.34,1.44-10.57.39-.97,4.69-.46,7.2-.42,1.42.02,2.83.47,4.25.73.27-.34.54-.67.8-1.01Z"/>
        <path class="cls-1" d="M823.81,47.54c.43-1.82.24-5.42,1.95-7.28,2.36-2.56,10.14-2.63,11.79.39,2.1,3.86,1,8.74-3.04,11.27-2.98,1.86-7.92.3-10.7-4.38Z"/>
        <path class="cls-1" d="M695,96.91c-2.07-3.27-.92-7.09,2.82-9.34,3.03-1.83,6.83-.78,9,2.49,1.52,2.29.54,7.25-1.71,8.57-3.84,2.26-8.04,1.55-10.12-1.72Z"/>
        <path class="cls-1" d="M615.31,65.9c-3.42,2.12-6.67,1.6-8.54-1.36-1.47-2.33,1.08-8.3,4.45-10.44,2.83-1.79,4.09.26,5.29,2.23,2.06,3.36,2.57,8.1-1.21,9.58Z"/>
        <path class="cls-1" d="M739.42,45.93c-1.97-3.04-1.35-8.56,1.49-8.91,2.37-.29,5.65,1.3,7.41,3.13,2.11,2.2,1.29,5.31-1.21,7.36-1.97,1.61-6.27.62-7.69-1.58Z"/>
        <path class="cls-1" d="M966.5,167.86c-12.52,1.92-25.07,3.44-37.78,3.09-.05-.58-.1-1.17-.15-1.75,12.59-1.02,25.19-2.03,37.78-3.05.05.57.1,1.14.14,1.71Z"/>
        <path class="cls-1" d="M616.77,44.31c-.56.05-1.71.19-2.86.2-.1,0-.39-1.29-.28-1.34.96-.46,1.97-.86,3-1.12,1.52-.38,3.19-.35,4.58-.97,2.71-1.22,5.03-.35,6,1.9.59,1.37-.11,4.48-1.21,5.12-1.7.99-4.4,1.07-6.36.47-1.24-.38-1.88-2.69-2.87-4.26Z"/>
        <path class="cls-1" d="M843.15,182.6c7.1-.39,14.21-.7,21.3-1.24,1.55-.12,3.03-1.07,4.54-1.64-.02-.35-.05-.71-.07-1.06,1.7.86,3.4,1.72,5.3,2.68-3.91,2.76-27.02,4.09-31.06,1.26Z"/>
        <path class="cls-1" d="M634.56,70.35c-2.29-3.98-1.18-6.14.97-7.77,2.32-1.75,4.54-1.05,6.12,1.21,1.56,2.22.75,6.35-1.79,7.14-1.8.56-4.08-.41-5.31-.58Z"/>
        <path class="cls-1" d="M812.64,403.33c-2.51-.09-4.56-.09-6.59-.24-3.57-.26-3.15-3.44-2.82-5.27.24-1.34,2.53-2.61,4.17-3.28.61-.25,2.36,1.09,2.87,2.08,1.01,1.96,1.52,4.18,2.38,6.71Z"/>
        <path class="cls-1" d="M809.84,419.64c-1.62-.24-3.24-.47-5.12-.75-.11.81-.22,1.65-.45,3.39-2.24-5.86-4.18-10.95-6.12-16.04.23-.11.47-.22.7-.33,3.85,4.27,7.71,8.55,11.56,12.82-.19.3-.38.6-.57.9Z"/>
        <path class="cls-1" d="M781.29,459.79c-1.08-3.3-1.68-5.63.94-7.31,2.57-1.65,4.43.14,5.58,2.11,1.31,2.25,1.98,5.2-1.01,6.47-1.41.6-3.65-.78-5.52-1.26Z"/>
        <path class="cls-1" d="M594.52,82.71c1.2-3.78,2.33-7.59,3.66-11.33.23-.66,1.28-1.03,1.95-1.53.3.85.81,1.69.84,2.55.05,1.29-.38,2.6-.37,3.89.04,3.52-1.53,5.82-4.68,7.06-.47-.22-.93-.43-1.4-.65Z"/>
        <path class="cls-1" d="M844.8,373.8c-3.16,4.97-4.94,2.6-10.86-3.1,1.06-1.18,2.07-2.29,3.27-3.63,2.4,2.12,4.88,4.32,7.6,6.72Z"/>
        <path class="cls-1" d="M644.52,16.15c3.03,1.83-.35,13.76-5.75,18.45,1.91-6.14,3.82-12.27,5.75-18.45Z"/>
        <path class="cls-1" d="M831.95,348.85c7.37,1.99,14.74,3.97,22.89,6.17-1.39,1.34-2.15,2.08-2.91,2.81.06-.37.12-.75.17-1.12-6.78-2.32-13.57-4.64-20.35-6.96.07-.3.13-.6.2-.91Z"/>
        <path class="cls-1" d="M616.59,14.78c-1.54-4.84-2.21-9.61,1.18-14,1.25,4.79.06,9.4-1.18,14Z"/>
        <path class="cls-1" d="M713.37,441.19c-2.88-1.09-5.12-1.27-5.76-2.38-.59-1.02.54-3.04.91-4.62,1.44.52,3.25.69,4.19,1.69.74.78.39,2.58.67,5.31Z"/>
        <path class="cls-1" d="M845.41,166.85c-2.81,1.21-5.63,2.42-9.48,4.08,1.13-1.72,1.65-2.51,2.18-3.31-1.41-1.28-2.84-2.59-5.1-4.65,5.24-.36,7.33,6.66,12.34,1.9.02.66.05,1.32.07,1.98Z"/>
        <path class="cls-1" d="M758.72,528.54c4.92-.07,5.64,4.11,8.45,6.33-3.59,1.13-6.16-.91-8.45-6.33Z"/>
        <path class="cls-1" d="M681.07,35.5c3.38-5.58,6.77-11.15,10.15-16.73.38.23.76.46,1.13.69-3.42,5.56-6.83,11.11-10.25,16.67-.34-.21-.69-.42-1.03-.62Z"/>
        <path class="cls-1" d="M652.1,54.38c.07-2.15.13-3.67.18-5.2,1.1.6,2.71.95,3.18,1.87.65,1.27.43,2.98.58,4.51-1.16-.35-2.31-.7-3.94-1.18Z"/>
        <path class="cls-1" d="M765.04,446.06c-.11,5.56-.22,11.12-.33,16.67-.54-.01-1.08-.03-1.62-.04.31-5.55.63-11.09.94-16.64.33,0,.67,0,1,0Z"/>
        <path class="cls-1" d="M799.54,216.03c6.12-1.56,12.24-3.11,18.36-4.67.1.43.2.87.31,1.3-6.16,1.41-12.32,2.81-18.47,4.22-.06-.28-.13-.57-.19-.85Z"/>
      </g>
      <g id="little-left-spalsh-wht">
        <path class="cls-1" d="M842.53,405.79c-4.04-3.07-8.09-6.13-12.13-9.2l.89-1.13c3.98,3.15,7.97,6.3,11.95,9.45-.24.29-.47.58-.71.88Z"/>
        <path class="cls-1" d="M580.99,158.93c-.75-1.47-1.5-2.95-2.25-4.42.89-.23,2.38-.89,2.58-.61.87,1.18,1.36,2.64,1.98,3.99-.77.35-1.54.7-2.31,1.04Z"/>
        <path class="cls-1" d="M656.27,8.39c1,2.41,1.63,3.93,2.23,5.38-1.56,1.09-3.08,2.16-5.22,3.66,1.02-3.09,1.88-5.69,2.99-9.03Z"/>
        <path class="cls-1" d="M813.06,378.74c2.48,1.63,4.95,3.26,7.73,5.1-4.59,1.77-5.66-2.74-8.39-3.96.22-.38.44-.76.66-1.13Z"/>
        <path class="cls-1" d="M658.16,51.21c1.65-1.97,3.3-3.95,4.95-5.93.47.42.94.84,1.41,1.27-1.71,1.93-3.41,3.86-5.12,5.79l-1.24-1.13Z"/>
        <path class="cls-1" d="M697.08,151.31c2.31-2.78,4.62-5.56,6.93-8.33.46.42.92.84,1.38,1.26-2.56,2.55-5.12,5.1-7.67,7.65-.21-.19-.42-.39-.64-.58Z"/>
        <path class="cls-1" d="M1002.77,197.39c-4.44.67-8.88,1.35-13.33,2.02l-.16-1.1c4.45-.65,8.89-1.29,13.34-1.94.05.34.1.68.15,1.01Z"/>
        <path class="cls-1" d="M721.26,77.96c-1.38-2.58-2.75-5.15-4.13-7.73.52-.26,1.03-.53,1.55-.79,1.21,2.65,2.41,5.3,3.62,7.96-.35.19-.7.38-1.04.56Z"/>
        <path class="cls-1" d="M734.85,124.82c-1.83-2.49-6.11-.17-7.66-3.23.26-.52.53-1.05.79-1.57,2.48,1.21,4.97,2.42,7.45,3.63-.2.39-.39.78-.59,1.17Z"/>
        <path class="cls-1" d="M1020.08,192.49c4.04-.75,8.07-1.5,12.11-2.25.07.3.14.6.22.91-4.01.86-8.02,1.73-12.02,2.59-.1-.41-.2-.83-.3-1.24Z"/>
        <path class="cls-1" d="M846.21,189.48c3.42-1.2,6.84-2.4,10.26-3.6.16.52.31,1.03.47,1.55-3.49.99-6.98,1.98-10.47,2.97l-.26-.93Z"/>
        <path class="cls-1" d="M745.55,381.85c-3.84,1.9-2.29,8.71-8.93,8.4-1.62-.07-3.88,1.92-4.92,3.55-3.12,4.92-7.55,6.08-12.73,4.98-6.88-1.45-13.71-3.19-20.52-4.96-3.34-.87-5.82-2.63-5.36-6.71.08-.71-.3-1.55-.66-2.23-2.97-5.65-2.86-6.34,2.23-11.12,3.72,3.8,7.46,7.62,11.57,11.81.32-1.73.55-2.97.74-3.97-2.33-1.52-4.41-2.87-6.49-4.23,4.69-1.59,8.24-1.69,12.45,1.14,4.22,2.85,10.12,3.2,15.29,4.65.13-.3.26-.6.39-.89-.86-.75-1.73-1.5-2.59-2.25.16-.3.32-.6.47-.9,4.13,2.45,8.25,4.9,12.67,7.52-.35-2.04-.65-3.74-.94-5.45-1.93-.84-3.9-1.7-5.88-2.57.19-.49.38-.97.57-1.46,4.09,1.22,8.18,2.45,12.26,3.67.13.34.25.67.38,1.01Z"/>
        <path class="cls-1" d="M794.95,194.54c-.91.83-1.88,2.44-2.71,2.37-8.04-.66-14.14,4.56-21.21,6.74-7.3,2.24-14.49,4.87-21.83,6.92-1.69.47-4.2-.25-5.62-1.35-.63-.49-.06-3.76.95-4.89,1.92-2.13,4.45-3.8,6.93-5.33,1.77-1.1,3.83-2.26,5.83-2.39,6.88-.45,13.36-3.28,20.5-2.54,5.42.56,11.01-.42,16.52-.71.22.39.44.79.66,1.18Z"/>
        <path class="cls-1" d="M763.59,177.58l-2.57-4.08c.24-.47.49-.94.73-1.4,1.47,6.44,4.82,2.44,7.28,2.47.51-1.52,1-3,1.49-4.48,1.42.72,2.8,1.56,4.29,2.11,1.2.44,2.53.51,4.16.8-.03.52.07,1.59-.19,2.56-1.08,4.02.45,6.55,4.08,8.37,1.08.54,2.32,2.48,2.1,3.46-.24,1.04-2.07,2.28-3.32,2.42-6.88.73-13.78.68-19.53-3.89-1.26-1-1.99-3.38-1.92-5.08.04-1.06,2.06-2.04,3.41-3.25Z"/>
        <path class="cls-1" d="M743.47,370.51c.91.32,1.82.64,3.06,1.09-.17-1.06-.29-1.76-.32-1.95,3.27-1.64,6.37-3.2,8.8-4.43,2.93,1.17,5.56,2.22,8.33,3.33,1.09,3.41,2.3,7.2,3.91,12.22-5.08-2-8.93-3.6-12.83-5.02-1.48-.54-3.23-1.25-4.63-.92-3.6.86-5.19-1.12-6.32-4.31Z"/>
        <path id="wht" class="cls-1" d="M779.35,212.34c14.52-4.91,27.75-10.12,42.01-11.48-1.6,3.53-36.04,12.79-42.01,11.48Z"/>
        <path class="cls-1" d="M762.35,334.18c-1.84,4.77-4.67,3.63-7.35,3.21-1.32-.21-2.83-.5-4.01-.07-2.91,1.08-4.42-.28-5.11-2.71-.2-.72,1.07-2.68,1.5-2.63,4.9.56,9.76,1.39,14.96,2.2Z"/>
        <path class="cls-1" d="M572.7,182.56c-2.93-5.89-.44-9.73,8.4-13.84-2.85,4.69-5.48,9.04-8.4,13.84Z"/>
        <path class="cls-1" d="M799.71,199.22c4.37-2.02,8.44-5.06,13.64-3.48-4.26,2.33-8.41,5.03-13.64,3.48Z"/>
        <path class="cls-1" d="M752.64,416.18c5.65,2.29,5.44,7.76,7.52,11.8-.28.19-.55.38-.83.57-1.31-1.82-2.27-4.11-4-5.35-2.5-1.79-3.55-3.67-2.7-7.02Z"/>
        <path class="cls-1" d="M845.86,147c2.59,2.25,5.18,4.51,7.98,6.95-.52.79-1.05,1.61-2.04,3.11-.23-5.92-4.87-4-8.53-5.39,3.03-1.01,4.67-2.24,2.62-4.78l-.03.11Z"/>
        <path class="cls-1" d="M787.59,188.75c1.63-2.04,6.12.09,4.8-5.34,1.57,1.32,3.15,2.65,4.72,3.97-.18.43-.35.85-.53,1.28-3,.03-6,.06-8.99.1Z"/>
        <path class="cls-1" d="M807.83,192.61c-1.78-.13-3.58-.18-5.31-.53-.18-.04.03-1.96.07-3,1.87.49,3.74.97,5.6,1.46-.12.69-.24,1.39-.36,2.08Z"/>
        <path class="cls-1" d="M845.89,146.89c-3.09.74-5.73-1.15-6.07-5.51,2.01,1.87,4.02,3.74,6.04,5.62,0,0,.03-.11.03-.11Z"/>
        <path class="cls-1" d="M749.53,103.79c-.34-.89-.6-1.54-.86-2.22.51-.17.95-.34.96-.32.73,1.58,1.42,3.17,2.11,4.76-.36.26-.72.53-1.07.79-1.59-.74-3.19-1.48-4.78-2.22.16-.41.32-.82.48-1.23.91.12,1.83.24,3.17.43Z"/>
        <path class="cls-1" d="M766.97,189.63c-4.49,1.81-4.96,1.61-7.65-3.14,2.82,1.16,4.86,2,7.65,3.14Z"/>
        <polygon id="_Slice_" data-name="&amp;lt;Slice&amp;gt;" class="cls-1" points="748.27 147.94 712.59 434.94 741.69 418.61 777.38 131.61 748.27 147.94"/>
      </g>
      <g id="left-left-wht">
        <path class="cls-1" d="M567.39,489.22c2.45-13.23,4.91-26.46,7.36-39.7.34.04.67.09,1.01.13-.26,1.99-.51,3.99-.77,5.98-.68,5.17.78,6.52,5.98,5.54.91-.17,1.8-.41,3.25-.74-1.08,3.94-.45,8.13-3.87,10.56.15,1.3.62,2.56.36,3.64-1.31,5.28-2.96,10.47-4.21,15.76-1.02,4.34-1.56,8.8-2.48,13.17-.8,3.82-1.82,7.59-2.75,11.39-.45.02-.91.03-1.36.05-.97-2.34-2.04-4.64-2.89-7.02-2.46-6.87-5.08-13.69-7.1-20.69-.85-2.93-.97-6.38-.34-9.36,2.83-13.4,6.02-26.73,9.14-40.07.42-1.79,1.11-3.52,1.66-5.23,5.73.97,6.97,2.94,4.36,9.68-5.15,13.32-6.58,27.35-8.69,41.26-.27,1.81.01,3.71.04,5.57.44.03.87.06,1.31.09Z"/>
        <path class="cls-1" d="M551.94,442.73c6.05,5.79,4.94,22.11-1.9,30.87.62-2.3,1.25-4.59,1.87-6.89-.17-.08-.34-.15-.51-.23-.86,1.8-1.72,3.61-2.74,5.73-3.43-2.73-4.77-6.01-3.55-9.86,2.03-6.44,4.42-12.76,6.83-19.62Z"/>
        <path class="cls-1" d="M582.85,480.19c.87-2.98,1.79-5.95,2.61-8.94,1.32-4.84,2.45-9.74,3.95-14.52.4-1.27,1.88-2.2,2.86-3.28.68,1.22,1.95,2.44,1.94,3.65-.09,7.16-.42,14.31-.84,21.46-.06.96-1.08,1.87-1.66,2.81-.98-.88-2.27-1.59-2.86-2.68-.72-1.33-.85-2.97-1.51-5.6-1.31,3.12-2.23,5.3-3.14,7.47-.45-.12-.9-.25-1.35-.37Z"/>
        <path class="cls-1" d="M591.72,464.63c-.64-.06-1.28-.13-1.92-.19-.02,3.64-.04,7.29-.06,10.93.38.02.77.04,1.15.06.28-3.6.56-7.2.83-10.8Z"/>
        <path id="wht-2" data-name="wht" class="cls-1" d="M542.59,436.55c3.81,8.45.45,15.51-2.43,22.89-7.04-8.16-6.38-14.71,2.43-22.89Z"/>
        <path class="cls-1" d="M600.4,474.75c3.58,2.9,4.3,5.01,2.22,7.99-1.15,1.65-1.48,3.87-2.32,6.22-3.63-4.92.32-9,.1-14.22Z"/>
        <path class="cls-1" d="M608.06,487.81c1.25,3.18,2.45,6.22,3.86,9.8-2.01.12-3.48.21-4.93.29.55-2.13,1.75-4.13,1.27-5.59-.51-1.57-2.59-2.63-4.3-4.21,1.53-.11,2.82-.2,4.1-.3Z"/>
        <path class="cls-1" d="M591.72,464.63c-.28,3.6-.56,7.2-.83,10.8-.38-.02-.77-.04-1.15-.06.02-3.64.04-7.29.06-10.93.64.06,1.28.13,1.92.19Z"/>
      </g>
      <g id="little-left-spalsh-wht-2" data-name="little-left-spalsh-wht">
        <path class="cls-1" d="M842.53,405.79c-4.04-3.07-8.09-6.13-12.13-9.2l.89-1.13c3.98,3.15,7.97,6.3,11.95,9.45-.24.29-.47.58-.71.88Z"/>
        <path class="cls-1" d="M580.99,158.93c-.75-1.47-1.5-2.95-2.25-4.42.89-.23,2.38-.89,2.58-.61.87,1.18,1.36,2.64,1.98,3.99-.77.35-1.54.7-2.31,1.04Z"/>
        <path class="cls-1" d="M656.27,8.39c1,2.41,1.63,3.93,2.23,5.38-1.56,1.09-3.08,2.16-5.22,3.66,1.02-3.09,1.88-5.69,2.99-9.03Z"/>
        <path class="cls-1" d="M813.06,378.74c2.48,1.63,4.95,3.26,7.73,5.1-4.59,1.77-5.66-2.74-8.39-3.96.22-.38.44-.76.66-1.13Z"/>
        <path class="cls-1" d="M658.16,51.21c1.65-1.97,3.3-3.95,4.95-5.93.47.42.94.84,1.41,1.27-1.71,1.93-3.41,3.86-5.12,5.79l-1.24-1.13Z"/>
        <path class="cls-1" d="M697.08,151.31c2.31-2.78,4.62-5.56,6.93-8.33.46.42.92.84,1.38,1.26-2.56,2.55-5.12,5.1-7.67,7.65-.21-.19-.42-.39-.64-.58Z"/>
        <path class="cls-1" d="M1002.77,197.39c-4.44.67-8.88,1.35-13.33,2.02l-.16-1.1c4.45-.65,8.89-1.29,13.34-1.94.05.34.1.68.15,1.01Z"/>
        <path class="cls-1" d="M721.26,77.96c-1.38-2.58-2.75-5.15-4.13-7.73.52-.26,1.03-.53,1.55-.79,1.21,2.65,2.41,5.3,3.62,7.96-.35.19-.7.38-1.04.56Z"/>
        <path class="cls-1" d="M734.85,124.82c-1.83-2.49-6.11-.17-7.66-3.23.26-.52.53-1.05.79-1.57,2.48,1.21,4.97,2.42,7.45,3.63-.2.39-.39.78-.59,1.17Z"/>
        <path class="cls-1" d="M1020.08,192.49c4.04-.75,8.07-1.5,12.11-2.25.07.3.14.6.22.91-4.01.86-8.02,1.73-12.02,2.59-.1-.41-.2-.83-.3-1.24Z"/>
        <path class="cls-1" d="M846.21,189.48c3.42-1.2,6.84-2.4,10.26-3.6.16.52.31,1.03.47,1.55-3.49.99-6.98,1.98-10.47,2.97l-.26-.93Z"/>
        <path class="cls-1" d="M745.55,381.85c-3.84,1.9-2.29,8.71-8.93,8.4-1.62-.07-3.88,1.92-4.92,3.55-3.12,4.92-7.55,6.08-12.73,4.98-6.88-1.45-13.71-3.19-20.52-4.96-3.34-.87-5.82-2.63-5.36-6.71.08-.71-.3-1.55-.66-2.23-2.97-5.65-2.86-6.34,2.23-11.12,3.72,3.8,7.46,7.62,11.57,11.81.32-1.73.55-2.97.74-3.97-2.33-1.52-4.41-2.87-6.49-4.23,4.69-1.59,8.24-1.69,12.45,1.14,4.22,2.85,10.12,3.2,15.29,4.65.13-.3.26-.6.39-.89-.86-.75-1.73-1.5-2.59-2.25.16-.3.32-.6.47-.9,4.13,2.45,8.25,4.9,12.67,7.52-.35-2.04-.65-3.74-.94-5.45-1.93-.84-3.9-1.7-5.88-2.57.19-.49.38-.97.57-1.46,4.09,1.22,8.18,2.45,12.26,3.67.13.34.25.67.38,1.01Z"/>
        <path class="cls-1" d="M794.95,194.54c-.91.83-1.88,2.44-2.71,2.37-8.04-.66-14.14,4.56-21.21,6.74-7.3,2.24-14.49,4.87-21.83,6.92-1.69.47-4.2-.25-5.62-1.35-.63-.49-.06-3.76.95-4.89,1.92-2.13,4.45-3.8,6.93-5.33,1.77-1.1,3.83-2.26,5.83-2.39,6.88-.45,13.36-3.28,20.5-2.54,5.42.56,11.01-.42,16.52-.71.22.39.44.79.66,1.18Z"/>
        <path class="cls-1" d="M763.59,177.58l-2.57-4.08c.24-.47.49-.94.73-1.4,1.47,6.44,4.82,2.44,7.28,2.47.51-1.52,1-3,1.49-4.48,1.42.72,2.8,1.56,4.29,2.11,1.2.44,2.53.51,4.16.8-.03.52.07,1.59-.19,2.56-1.08,4.02.45,6.55,4.08,8.37,1.08.54,2.32,2.48,2.1,3.46-.24,1.04-2.07,2.28-3.32,2.42-6.88.73-13.78.68-19.53-3.89-1.26-1-1.99-3.38-1.92-5.08.04-1.06,2.06-2.04,3.41-3.25Z"/>
        <path class="cls-1" d="M743.47,370.51c.91.32,1.82.64,3.06,1.09-.17-1.06-.29-1.76-.32-1.95,3.27-1.64,6.37-3.2,8.8-4.43,2.93,1.17,5.56,2.22,8.33,3.33,1.09,3.41,2.3,7.2,3.91,12.22-5.08-2-8.93-3.6-12.83-5.02-1.48-.54-3.23-1.25-4.63-.92-3.6.86-5.19-1.12-6.32-4.31Z"/>
        <path id="wht-3" data-name="wht" class="cls-1" d="M779.35,212.34c14.52-4.91,27.75-10.12,42.01-11.48-1.6,3.53-36.04,12.79-42.01,11.48Z"/>
        <path class="cls-1" d="M762.35,334.18c-1.84,4.77-4.67,3.63-7.35,3.21-1.32-.21-2.83-.5-4.01-.07-2.91,1.08-4.42-.28-5.11-2.71-.2-.72,1.07-2.68,1.5-2.63,4.9.56,9.76,1.39,14.96,2.2Z"/>
        <path class="cls-1" d="M572.7,182.56c-2.93-5.89-.44-9.73,8.4-13.84-2.85,4.69-5.48,9.04-8.4,13.84Z"/>
        <path class="cls-1" d="M799.71,199.22c4.37-2.02,8.44-5.06,13.64-3.48-4.26,2.33-8.41,5.03-13.64,3.48Z"/>
        <path class="cls-1" d="M752.64,416.18c5.65,2.29,5.44,7.76,7.52,11.8-.28.19-.55.38-.83.57-1.31-1.82-2.27-4.11-4-5.35-2.5-1.79-3.55-3.67-2.7-7.02Z"/>
        <path class="cls-1" d="M845.86,147c2.59,2.25,5.18,4.51,7.98,6.95-.52.79-1.05,1.61-2.04,3.11-.23-5.92-4.87-4-8.53-5.39,3.03-1.01,4.67-2.24,2.62-4.78l-.03.11Z"/>
        <path class="cls-1" d="M787.59,188.75c1.63-2.04,6.12.09,4.8-5.34,1.57,1.32,3.15,2.65,4.72,3.97-.18.43-.35.85-.53,1.28-3,.03-6,.06-8.99.1Z"/>
        <path class="cls-1" d="M807.83,192.61c-1.78-.13-3.58-.18-5.31-.53-.18-.04.03-1.96.07-3,1.87.49,3.74.97,5.6,1.46-.12.69-.24,1.39-.36,2.08Z"/>
        <path class="cls-1" d="M845.89,146.89c-3.09.74-5.73-1.15-6.07-5.51,2.01,1.87,4.02,3.74,6.04,5.62,0,0,.03-.11.03-.11Z"/>
        <path class="cls-1" d="M749.53,103.79c-.34-.89-.6-1.54-.86-2.22.51-.17.95-.34.96-.32.73,1.58,1.42,3.17,2.11,4.76-.36.26-.72.53-1.07.79-1.59-.74-3.19-1.48-4.78-2.22.16-.41.32-.82.48-1.23.91.12,1.83.24,3.17.43Z"/>
        <path class="cls-1" d="M766.97,189.63c-4.49,1.81-4.96,1.61-7.65-3.14,2.82,1.16,4.86,2,7.65,3.14Z"/>
        <polygon id="_Slice_-2" data-name="&amp;lt;Slice&amp;gt;" class="cls-1" points="748.27 147.94 712.59 434.94 741.69 418.61 777.38 131.61 748.27 147.94"/>
      </g>
      <g id="main-left-wht">
        <path class="cls-1" d="M489.83,452.32c-2.79-6.74,1.48-11.15,4.22-16.07.35.1.7.21,1.05.31-.41,1.23-.82,2.46-1.35,4.03.73.79,1.63,1.77,3.34,3.63-.58-2.04-.84-2.95-1.21-4.23.62.33,1.09.42,1.2.67,1.63,3.73-3.48,13.41-7.3,15.17-1.87,4.81-3.5,8.99-5.5,14.14-4.46-8.15-1.67-14.02,2.53-20.03.45.38.91.66,1.23,1.05.31.37.48.86.71,1.3l1.07.03Z"/>
        <path class="cls-1" d="M478.08,457.3c.71-3.34-2.02-7.39,2.25-9.92.34-.2.42-1.24.28-1.82-.79-3.31-1.69-6.59-2.64-10.22,3.94,1.25,5.43,4.35,5.99,7.67.97,5.81-2.12,10.23-5.88,14.3Z"/>
        <path class="cls-1" d="M411.15,448.5c1.19-7.61,1.97-15.34,7.69-21.25-.66,7.77-1.04,15.63-7.69,21.25Z"/>
        <path class="cls-1" d="M371.06,368.37c-.87.43-1.74.87-3.33,1.65,1.77.05,2.76.08,3.61.1-3.97,3.5-7.4,8.15-14.29,6.16,4.39-3.1,8.79-6.19,13.18-9.29.28.46.55.92.83,1.38Z"/>
        <path class="cls-1" d="M491.94,465.21c2.34-5.49,4.35-10.2,6.44-15.1,2.99,4.71.18,11.95-6.44,15.1Z"/>
        <path class="cls-1" d="M486.25,430.26c5.3,3.2,5.34,4.9-.28,12.82.57-4.93-3.28-8.56.28-12.82Z"/>
        <path class="cls-1" d="M419.95,436.6c2.07-4.31,4.15-8.63,6.56-13.64,1.72,4.46-.33,8.76-6.56,13.64Z"/>
        <path class="cls-1" d="M449.55,379.26c-1.31,1.68-2.55,3.42-4,4.98-.16.18-2.07-.67-2.07-1.03.01-1.99-.61-6-.4-7.71,2.05.08,4.45,2.14,5.87,2.2.2.52.4,1.04.59,1.56Z"/>
        <path class="cls-1" d="M352.66,429.58c.16-5.48,1.83-6.69,8.51-6.7-3.3,2.6-5.9,4.65-8.51,6.7Z"/>
        <g>
          <path class="cls-1" d="M626.55,492.29c-1.09-3.19-2.36-6.34-3.16-9.6-.19-.79,1.14-1.95,1.77-2.94.41.09.82.19,1.23.28.04,4.09.08,8.17.12,12.26,0,0,.04,0,.04,0Z"/>
          <path class="cls-1" d="M656.17,453.17c.7-3.46,1.24-6.1,1.98-9.76,2.85,4.47,2.2,8.52-1.98,9.76Z"/>
        </g>
        <path class="cls-1" d="M510.47,454.86c-.5-2.82-.99-5.63-1.49-8.45.6-.11,1.21-.23,1.81-.34.57,2.77,1.14,5.54,1.71,8.31-.68.16-1.36.32-2.04.48Z"/>
        <path class="cls-1" d="M607.82,466.11c-.66-1.71-8.42,12.98-5.38,11.65-1,6.67,5.86-12.24,5.38-11.65Z"/>
      </g>
      <polygon id="underbelly-2" data-name="underbelly" class="cls-1" points="537.95 192.5 547.56 187.7 554.46 184.25 558.94 177.25 565.48 170.3 568.07 166.06 570.8 162.88 573.33 160.06 577.13 158.12 572.09 176.39 571.06 196.33 544.32 427.88 511.21 424.06 537.95 192.5"/>
    </g>
  </g>
</svg>